<svg width="16" height="9" viewBox="0 0 16 9" fill="none" xmlns="http://www.w3.org/2000/svg">
<path d="M0.999998 1.99981C0.999541 1.76615 1.08092 1.53972 1.23 1.35981C1.31395 1.25855 1.41705 1.17485 1.5334 1.11349C1.64974 1.05214 1.77705 1.01435 1.90803 1.00227C2.039 0.990194 2.17107 1.00408 2.29668 1.04312C2.42228 1.08216 2.53895 1.1456 2.64 1.22981L8 5.70981L13.37 1.38981C13.4723 1.30674 13.59 1.24471 13.7163 1.20728C13.8427 1.16985 13.9752 1.15775 14.1062 1.17169C14.2372 1.18563 14.3642 1.22533 14.4798 1.2885C14.5955 1.35168 14.6975 1.43708 14.78 1.53981C14.871 1.64327 14.9397 1.76444 14.9817 1.8957C15.0237 2.02696 15.0381 2.16549 15.024 2.30258C15.0099 2.43967 14.9676 2.57238 14.8998 2.69236C14.832 2.81234 14.7402 2.91701 14.63 2.99981L8.63 7.82981C8.45106 7.97689 8.22662 8.05729 7.995 8.05729C7.76337 8.05729 7.53893 7.97689 7.36 7.82981L1.36 2.82981C1.23898 2.72949 1.14332 2.60206 1.08077 2.45785C1.01822 2.31364 0.990547 2.15671 0.999998 1.99981Z" fill="white"/>
</svg>
