<svg width="24" height="24" viewBox="0 0 24 24" fill="none" xmlns="http://www.w3.org/2000/svg">
<g clip-path="url(#clip0_14_351)">
<g clip-path="url(#clip1_14_351)">
<path d="M18.488 21.7718C18.0538 22.1241 17.4085 22.0601 17.0513 21.6316L14.5716 18.6405C14.2145 18.212 14.2794 17.5753 14.7137 17.223C15.1479 16.8706 15.7932 16.9347 16.1504 17.3631L18.6301 20.3543C18.9872 20.7867 18.9223 21.4194 18.488 21.7718Z" fill="#1C548B"/>
<path d="M3.46758 21.7718C3.90184 22.1241 4.54713 22.0601 4.90427 21.6316L7.38398 18.6405C7.74112 18.212 7.67619 17.5753 7.24193 17.223C6.80768 16.8706 6.16239 16.9347 5.80525 17.3631L3.32554 20.3543C2.96839 20.7867 3.03333 21.4194 3.46758 21.7718Z" fill="#1C548B"/>
<path d="M10.8663 21.3754C15.7436 21.3754 19.6975 17.4744 19.6975 12.6622C19.6975 7.85005 15.7436 3.94904 10.8663 3.94904C5.98901 3.94904 2.03516 7.85005 2.03516 12.6622C2.03516 17.4744 5.98901 21.3754 10.8663 21.3754Z" fill="#1C548B"/>
<path d="M15.2979 3.77676C15.2979 3.77676 17.4651 2.15905 19.5795 3.58856C19.5795 3.58856 22.3352 5.43851 20.168 8.5658L15.2979 3.77676Z" fill="#1C548B"/>
<path d="M6.7023 3.77676C6.7023 3.77676 4.53509 2.15905 2.42064 3.58856C2.42064 3.58856 -0.335039 5.43851 1.83217 8.5658L6.7023 3.77676Z" fill="#1C548B"/>
<path d="M10.866 19.8377C14.8826 19.8377 18.1387 16.6251 18.1387 12.6622C18.1387 8.69924 14.8826 5.48663 10.866 5.48663C6.84937 5.48663 3.59326 8.69924 3.59326 12.6622C3.59326 16.6251 6.84937 19.8377 10.866 19.8377Z" fill="#1D1D1D"/>
<path d="M12.5909 12.2538C14.0804 12.0776 13.9992 10.7642 13.9992 10.7642C13.9911 9.55893 12.7329 9.35071 12.7329 9.35071H11.7833V8.09338H10.9838V9.3467H10.4846V8.09338H9.65259V9.3427H8.15908V10.0955H8.96266V14.8044L8.12256 14.7964V15.5893H9.64853V16.8306H10.4886V15.5893H10.9797V16.8306H11.7873V15.5813H12.7451C14.1331 15.4331 14.263 14.1397 14.263 14.1397C14.3644 12.2818 12.5909 12.2538 12.5909 12.2538ZM10.448 10.2557H11.6778C12.1566 10.2557 12.5503 10.6401 12.5503 11.1166V11.1766C12.5503 11.5971 12.2054 11.9374 11.7792 11.9374H10.4521V10.2557H10.448ZM12.5463 13.7513C12.5463 14.1718 12.2013 14.5121 11.7752 14.5121H10.448V12.8304H11.6778C12.1566 12.8304 12.5503 13.2148 12.5503 13.6913V13.7513H12.5463Z" fill="#1C548B"/>
</g>
</g>
<defs>
<clipPath id="clip0_14_351">
<rect width="20" height="19" fill="white" transform="translate(1 3)"/>
</clipPath>
<clipPath id="clip1_14_351">
<rect width="20" height="19" fill="white" transform="translate(1 3)"/>
</clipPath>
</defs>
</svg>
