<svg width="24" height="24" viewBox="0 0 24 24" fill="none" xmlns="http://www.w3.org/2000/svg">
<g clip-path="url(#clip0_14_327)">
<g clip-path="url(#clip1_14_327)">
<path d="M14.7621 12.0023C15.2766 11.1236 15.5789 10.0969 15.5789 8.99623C15.5789 5.7589 13.0201 3.13666 9.86101 3.13666C6.70192 3.13666 4.14307 5.7589 4.14307 8.99161C4.14307 10.0923 4.44544 11.119 4.95991 11.9977H14.7621V12.0023Z" fill="#1C548B"/>
<path d="M2.45053 10.5179C2.18427 10.5179 1.95862 10.3051 1.94508 10.0277C1.79164 7.46553 2.75741 4.89879 4.53101 3.15525C6.16471 1.55508 8.29483 0.805871 10.5288 1.04173C14.9109 1.50884 17.8984 5.1994 17.7901 10.0045C17.7856 10.2913 17.5464 10.4994 17.2711 10.5133C16.9913 10.5086 16.7702 10.2681 16.7747 9.9814C16.8695 5.73587 14.2565 2.48466 10.4204 2.07306C8.48889 1.86494 6.64309 2.51703 5.23052 3.90446C3.66903 5.43526 2.81608 7.70139 2.95147 9.9629C2.97404 10.2496 2.76193 10.4994 2.48212 10.5133C2.46858 10.5179 2.45956 10.5179 2.45053 10.5179Z" fill="#1C548B"/>
<path d="M23.49 12.6174H0.505453C0.225649 12.6174 0 12.3862 0 12.0995C0 11.8127 0.225649 11.5815 0.505453 11.5815H23.49C23.7698 11.5815 23.9955 11.8127 23.9955 12.0995C24 12.3862 23.7698 12.6174 23.49 12.6174Z" fill="#1C548B"/>
<path d="M18.9408 12.0023C19.4553 12.881 19.7577 13.9077 19.7577 15.0084C19.7577 18.2458 17.1988 20.868 14.0397 20.868C10.8806 20.868 8.32178 18.2458 8.32178 15.0084C8.32178 13.9077 8.62415 12.881 9.13863 12.0023H18.9408Z" fill="#1C548B"/>
<path d="M13.8957 23C11.9596 23 10.1454 22.2508 8.71027 20.8449C6.93667 19.106 5.96638 16.5346 6.11982 13.9725C6.13787 13.6858 6.38157 13.473 6.65687 13.4869C6.93667 13.5054 7.14878 13.7505 7.13073 14.0373C6.99534 16.2988 7.84829 18.5603 9.40978 20.0957C10.8223 21.4831 12.6681 22.1306 14.5997 21.9225C18.4357 21.5109 21.0487 18.2597 20.954 14.0188C20.9495 13.732 21.1706 13.4915 21.4504 13.4869C21.7121 13.4777 21.9649 13.7089 21.9694 13.9956C22.0777 18.8054 19.0901 22.4913 14.708 22.9584C14.4372 22.9862 14.1665 23 13.8957 23Z" fill="#1C548B"/>
<path d="M15.299 13.6672L14.3783 13.2787C14.3783 13.2787 13.8052 13.0891 13.5615 12.7099H12.1579C12.2076 12.9874 12.4423 13.7643 13.4396 14.2083L14.7755 14.8095C14.7755 14.8095 15.7638 15.198 15.484 15.8825C15.484 15.8825 15.132 16.8167 13.76 16.3403C13.76 16.3403 13.1779 16.1692 12.695 15.6374L11.9819 16.5947C11.9819 16.5947 12.6138 17.4503 13.9586 17.6538V18.7452H14.9921L14.9876 17.6538C14.9876 17.6538 16.5852 17.4965 16.8379 15.7761C16.8289 15.7715 17.0861 14.2962 15.299 13.6672Z" fill="#121212"/>
<path d="M12.9295 10.564C13.0242 8.80661 11.4086 8.77886 11.4086 8.77886C12.767 8.61237 12.6903 7.36831 12.6903 7.36831C12.6812 6.23062 11.5349 6.03175 11.5349 6.03175H10.6685V4.83856H9.93735V6.02713H9.48154V4.83856H8.71885V6.01788H7.35593V6.73009H8.08703V11.193L7.31982 11.1837V11.6138H12.3428C12.8708 11.2069 12.9295 10.564 12.9295 10.564ZM11.368 10.1987C11.368 10.5964 11.0521 10.9201 10.6639 10.9201H9.45446V9.32921H10.5782C11.016 9.32921 11.3725 9.69456 11.3725 10.1432V10.1987H11.368ZM11.368 7.75679C11.368 8.15452 11.0521 8.47825 10.6639 8.47825H9.45446V6.88733H10.5782C11.016 6.88733 11.3725 7.24806 11.3725 7.70129V7.75679H11.368Z" fill="#121212"/>
</g>
</g>
<defs>
<clipPath id="clip0_14_327">
<rect width="24" height="22" fill="white" transform="translate(0 1)"/>
</clipPath>
<clipPath id="clip1_14_327">
<rect width="24" height="22" fill="white" transform="translate(0 1)"/>
</clipPath>
</defs>
</svg>
