<svg width="22" height="22" viewBox="0 0 22 22" fill="none" xmlns="http://www.w3.org/2000/svg">
<path d="M17.6593 1.15943C17.8659 0.940947 18.1143 0.766107 18.3897 0.645248C18.6651 0.52439 18.9619 0.459966 19.2626 0.455784C19.5633 0.451602 19.8618 0.507747 20.1405 0.620901C20.4191 0.734055 20.6722 0.901921 20.8849 1.11458C21.0975 1.32723 21.2654 1.58036 21.3786 1.859C21.4917 2.13764 21.5479 2.43614 21.5437 2.73685C21.5395 3.03756 21.4751 3.33439 21.3542 3.60977C21.2333 3.88516 21.0585 4.13352 20.84 4.34018L14.2475 10.9327C14.2388 10.9414 14.2319 10.9517 14.2271 10.9631C14.2224 10.9745 14.22 10.9867 14.22 10.9991C14.22 11.0114 14.2224 11.0236 14.2271 11.035C14.2319 11.0464 14.2388 11.0567 14.2475 11.0654L20.84 17.6579C21.0518 17.8662 21.2202 18.1144 21.3356 18.3881C21.4509 18.6617 21.511 18.9556 21.5122 19.2526C21.5135 19.5496 21.4559 19.8439 21.3428 20.1186C21.2297 20.3932 21.0634 20.6428 20.8534 20.8528C20.6434 21.0629 20.3939 21.2293 20.1193 21.3424C19.8447 21.4555 19.5503 21.5132 19.2533 21.512C18.9563 21.5108 18.6625 21.4509 18.3888 21.3356C18.115 21.2202 17.8669 21.0519 17.6585 20.8402L11.066 14.2477C11.0573 14.239 11.047 14.232 11.0356 14.2273C11.0242 14.2226 11.012 14.2201 10.9996 14.2201C10.9873 14.2201 10.9751 14.2226 10.9637 14.2273C10.9523 14.232 10.942 14.239 10.9333 14.2477L4.34077 20.8402C4.13249 21.0519 3.88435 21.2204 3.61066 21.3357C3.33696 21.4511 3.04313 21.5111 2.74612 21.5124C2.44911 21.5136 2.15479 21.456 1.88014 21.343C1.60548 21.2299 1.35594 21.0636 1.14589 20.8536C0.935845 20.6436 0.769454 20.3941 0.656318 20.1194C0.543181 19.8448 0.485538 19.5505 0.486712 19.2535C0.487886 18.9565 0.547855 18.6626 0.66316 18.3889C0.778464 18.1152 0.946822 17.867 1.15852 17.6587L7.75102 11.0662C7.75975 11.0575 7.76668 11.0471 7.77141 11.0357C7.77613 11.0244 7.77856 11.0121 7.77856 10.9998C7.77856 10.9875 7.77613 10.9753 7.77141 10.9639C7.76668 10.9525 7.75975 10.9421 7.75102 10.9334L1.15852 4.34093C0.742192 3.91787 0.5099 3.34743 0.512247 2.75387C0.514594 2.16031 0.751389 1.59172 1.17105 1.17196C1.59072 0.752197 2.15925 0.515268 2.7528 0.512782C3.34636 0.510295 3.91686 0.742452 4.34002 1.15868L10.9325 7.75118C10.9412 7.75991 10.9516 7.76684 10.963 7.77157C10.9744 7.77629 10.9866 7.77873 10.9989 7.77873C11.0112 7.77873 11.0234 7.77629 11.0348 7.77157C11.0462 7.76684 11.0566 7.75991 11.0653 7.75118L17.6578 1.15868L17.6593 1.15943Z" fill="#E96464"/>
</svg>
