<svg width="12" height="14" viewBox="0 0 12 14" fill="none" xmlns="http://www.w3.org/2000/svg">
<path d="M11.2176 12.8184C10.9475 13.0885 10.5813 13.2402 10.1994 13.2402C9.81747 13.2402 9.45122 13.0885 9.18117 12.8184L5.99997 9.18245L2.81877 12.8172C2.68545 12.9528 2.52663 13.0605 2.35145 13.1343C2.17628 13.2081 1.98823 13.2466 1.79814 13.2473C1.60805 13.2481 1.41969 13.2112 1.24392 13.1388C1.06815 13.0665 0.908454 12.96 0.77404 12.8256C0.639626 12.6912 0.533155 12.5315 0.460769 12.3557C0.388382 12.1799 0.351512 11.9916 0.352286 11.8015C0.35306 11.6114 0.391462 11.4233 0.465278 11.2482C0.539094 11.073 0.646862 10.9142 0.782367 10.7808L4.09197 7.00085L0.781167 3.21845C0.645662 3.08513 0.537894 2.92631 0.464078 2.75113C0.390263 2.57596 0.35186 2.38791 0.351086 2.19782C0.350312 2.00773 0.387182 1.81937 0.459569 1.6436C0.531955 1.46783 0.638426 1.30813 0.77284 1.17372C0.907255 1.03931 1.06695 0.932834 1.24272 0.860448C1.41849 0.788061 1.60685 0.751191 1.79694 0.751965C1.98703 0.752739 2.17508 0.791141 2.35025 0.864957C2.52543 0.938773 2.68425 1.04654 2.81757 1.18205L5.99997 4.81925L9.18117 1.18205C9.31448 1.04654 9.47331 0.938773 9.64848 0.864957C9.82365 0.791141 10.0117 0.752739 10.2018 0.751965C10.3919 0.751191 10.5802 0.788061 10.756 0.860448C10.9318 0.932834 11.0915 1.03931 11.2259 1.17372C11.3603 1.30813 11.4668 1.46783 11.5392 1.6436C11.6116 1.81937 11.6484 2.00773 11.6476 2.19782C11.6469 2.38791 11.6085 2.57596 11.5347 2.75113C11.4608 2.92631 11.3531 3.08513 11.2176 3.21845L7.90797 7.00085L11.2176 10.7808C11.3515 10.9146 11.4577 11.0734 11.5301 11.2482C11.6026 11.423 11.6399 11.6104 11.6399 11.7996C11.6399 11.9889 11.6026 12.1763 11.5301 12.3511C11.4577 12.5259 11.3515 12.6847 11.2176 12.8184Z" fill="#E96464"/>
</svg>
