<svg width="13" height="15" viewBox="0 0 13 15" fill="none" xmlns="http://www.w3.org/2000/svg">
<path d="M1.75 2.85094V10.4688C1.74988 11.2225 2.03646 11.948 2.55161 12.4982C3.06676 13.0485 3.7719 13.3821 4.524 13.4316L4.71875 13.4375H9.96037C9.8376 13.7847 9.61021 14.0854 9.30951 14.2981C9.0088 14.5107 8.64956 14.6249 8.28125 14.625H4.125C3.18017 14.625 2.27403 14.2497 1.60593 13.5816C0.937834 12.9135 0.5625 12.0073 0.5625 11.0625V4.53125C0.562307 4.16274 0.676414 3.80324 0.889096 3.50229C1.10178 3.20135 1.40256 2.97377 1.75 2.85094V2.85094ZM10.6562 0.375C11.1287 0.375 11.5817 0.562667 11.9158 0.896716C12.2498 1.23077 12.4375 1.68383 12.4375 2.15625V10.4688C12.4375 10.9412 12.2498 11.3942 11.9158 11.7283C11.5817 12.0623 11.1287 12.25 10.6562 12.25H4.71875C4.24633 12.25 3.79327 12.0623 3.45922 11.7283C3.12517 11.3942 2.9375 10.9412 2.9375 10.4688V2.15625C2.9375 1.68383 3.12517 1.23077 3.45922 0.896716C3.79327 0.562667 4.24633 0.375 4.71875 0.375H10.6562ZM10.6562 1.5625H4.71875C4.56128 1.5625 4.41026 1.62506 4.29891 1.73641C4.18756 1.84776 4.125 1.99878 4.125 2.15625V10.4688C4.125 10.6262 4.18756 10.7772 4.29891 10.8886C4.41026 10.9999 4.56128 11.0625 4.71875 11.0625H10.6562C10.8137 11.0625 10.9647 10.9999 11.0761 10.8886C11.1874 10.7772 11.25 10.6262 11.25 10.4688V2.15625C11.25 1.99878 11.1874 1.84776 11.0761 1.73641C10.9647 1.62506 10.8137 1.5625 10.6562 1.5625Z" fill="#1C8DFF" fill-opacity="0.6"/>
</svg>
