<svg width="14" height="14" viewBox="0 0 14 14" fill="none" xmlns="http://www.w3.org/2000/svg">
<path d="M5.16637 2.51562H5.06465C5.12059 2.51562 5.16637 2.46641 5.16637 2.40625V2.51562H9.0318V2.40625C9.0318 2.46641 9.07758 2.51562 9.13352 2.51562H9.0318V3.5H9.9473V2.40625C9.9473 1.92363 9.58237 1.53125 9.13352 1.53125H5.06465C4.6158 1.53125 4.25087 1.92363 4.25087 2.40625V3.5H5.16637V2.51562ZM11.5748 3.5H2.62332C2.39826 3.5 2.21643 3.69551 2.21643 3.9375V4.375C2.21643 4.43516 2.26221 4.48438 2.31815 4.48438H3.08615L3.40022 11.6348C3.42056 12.101 3.77913 12.4688 4.21272 12.4688H9.98544C10.4203 12.4688 10.7776 12.1023 10.7979 11.6348L11.112 4.48438H11.88C11.936 4.48438 11.9817 4.43516 11.9817 4.375V3.9375C11.9817 3.69551 11.7999 3.5 11.5748 3.5ZM9.88754 11.4844H4.31063L4.00292 4.48438H10.1952L9.88754 11.4844Z" fill="#E96464"/>
</svg>
