<svg width="26" height="26" viewBox="0 0 26 26" fill="none" xmlns="http://www.w3.org/2000/svg">
<circle cx="13" cy="13" r="13" fill="url(#paint0_linear_1_212)" fill-opacity="0.8"/>
<path d="M10.0312 6.59375H9.875C9.96094 6.59375 10.0312 6.52344 10.0312 6.4375V6.59375H15.9688V6.4375C15.9688 6.52344 16.0391 6.59375 16.125 6.59375H15.9688V8H17.375V6.4375C17.375 5.74805 16.8145 5.1875 16.125 5.1875H9.875C9.18555 5.1875 8.625 5.74805 8.625 6.4375V8H10.0312V6.59375ZM19.875 8H6.125C5.7793 8 5.5 8.2793 5.5 8.625V9.25C5.5 9.33594 5.57031 9.40625 5.65625 9.40625H6.83594L7.31836 19.6211C7.34961 20.2871 7.90039 20.8125 8.56641 20.8125H17.4336C18.1016 20.8125 18.6504 20.2891 18.6816 19.6211L19.1641 9.40625H20.3438C20.4297 9.40625 20.5 9.33594 20.5 9.25V8.625C20.5 8.2793 20.2207 8 19.875 8ZM17.2832 19.4062H8.7168L8.24414 9.40625H17.7559L17.2832 19.4062Z" fill="white"/>
<defs>
<linearGradient id="paint0_linear_1_212" x1="13" y1="0" x2="13" y2="26" gradientUnits="userSpaceOnUse">
<stop stop-color="#1C8DFF"/>
<stop offset="1" stop-color="#A3CFFB"/>
</linearGradient>
</defs>
</svg>
