<svg width="15" height="8" viewBox="0 0 15 8" fill="none" xmlns="http://www.w3.org/2000/svg">
<path d="M0.0923167 1.17535C0.0897 0.941715 0.168978 0.714537 0.31639 0.533254C0.3994 0.431224 0.501723 0.346573 0.617498 0.284148C0.733273 0.221723 0.860225 0.182751 0.991084 0.169465C1.12194 0.156179 1.25414 0.16884 1.3801 0.206721C1.50606 0.244603 1.62331 0.306961 1.72513 0.390225L7.12631 4.82048L12.4561 0.451028C12.5577 0.36702 12.6748 0.303902 12.8008 0.265304C12.9268 0.226706 13.0591 0.213388 13.1903 0.226116C13.3214 0.238843 13.4488 0.277364 13.565 0.339466C13.6812 0.401568 13.784 0.486027 13.8675 0.587986C13.9595 0.690606 14.0292 0.811132 14.0725 0.942001C14.1157 1.07287 14.1313 1.21126 14.1185 1.34847C14.1057 1.48569 14.0647 1.61878 13.998 1.73938C13.9313 1.85998 13.8404 1.9655 13.731 2.04931L7.77589 6.93457C7.59832 7.0833 7.37463 7.16578 7.14302 7.16792C6.9114 7.17006 6.68622 7.09173 6.50594 6.94631L0.459975 2.00199C0.338035 1.9028 0.241197 1.77625 0.177318 1.63263C0.113439 1.489 0.0843167 1.33234 0.0923167 1.17535Z" fill="white"/>
</svg>
