<svg width="12" height="7" viewBox="0 0 12 7" fill="none" xmlns="http://www.w3.org/2000/svg">
<path d="M0.801387 1.59557C0.799434 1.42116 0.858615 1.25157 0.968659 1.11625C1.03063 1.04008 1.10701 0.976889 1.19344 0.930288C1.27986 0.883688 1.37463 0.854596 1.47232 0.844677C1.57001 0.834759 1.66869 0.84421 1.76272 0.872489C1.85675 0.900768 1.94427 0.947318 2.02028 1.00948L6.05228 4.31667L10.031 1.05486C10.1068 0.992152 10.1942 0.945035 10.2883 0.916221C10.3823 0.887408 10.4811 0.877466 10.579 0.886967C10.6769 0.896468 10.772 0.925224 10.8588 0.971583C10.9455 1.01794 11.0223 1.08099 11.0846 1.1571C11.1532 1.23371 11.2053 1.32368 11.2376 1.42138C11.2698 1.51907 11.2815 1.62238 11.272 1.72481C11.2624 1.82724 11.2318 1.92659 11.182 2.01662C11.1322 2.10665 11.0643 2.18542 10.9827 2.24798L6.53718 5.89484C6.40463 6.00587 6.23765 6.06744 6.06475 6.06903C5.89184 6.07063 5.72375 6.01216 5.58917 5.9036L1.07584 2.21266C0.984817 2.13861 0.912526 2.04415 0.86484 1.93693C0.817155 1.82971 0.795416 1.71277 0.801387 1.59557Z" fill="#1C8DFF" fill-opacity="0.6"/>
</svg>
