<svg width="14" height="14" viewBox="0 0 14 14" fill="none" xmlns="http://www.w3.org/2000/svg">
<path d="M4.20581 9.92423L6.59994 9.91548L11.8255 4.35048C12.0305 4.12998 12.1434 3.83715 12.1434 3.52565C12.1434 3.21415 12.0305 2.92132 11.8255 2.70082L10.965 1.77565C10.5549 1.33465 9.83931 1.33698 9.43242 1.7739L4.20581 7.34007V9.92423ZM10.1979 2.60048L11.06 3.5239L10.1936 4.44673L9.33314 3.52215L10.1979 2.60048ZM5.29084 7.82657L8.56222 4.34232L9.42265 5.26748L6.15182 8.75057L5.29084 8.75348V7.82657Z" fill="#2CBD96"/>
<path d="M3.1208 12.25H10.716C11.3144 12.25 11.8011 11.7267 11.8011 11.0833V6.027L10.716 7.19367V11.0833H4.83407C4.81996 11.0833 4.80532 11.0892 4.79121 11.0892C4.77331 11.0892 4.7554 11.0839 4.73696 11.0833H3.1208V2.91667H6.83541L7.92045 1.75H3.1208C2.5224 1.75 2.03577 2.27325 2.03577 2.91667V11.0833C2.03577 11.7267 2.5224 12.25 3.1208 12.25Z" fill="#2CBD96"/>
</svg>
