<svg width="23" height="15" viewBox="0 0 23 15" fill="none" xmlns="http://www.w3.org/2000/svg">
<path d="M22.2831 6.96673C21.5976 5.77781 17.8274 -0.188229 11.4222 0.0045694C5.49898 0.154524 2.07145 5.36008 1.13959 6.96673C1.04559 7.12956 0.996094 7.31426 0.996094 7.50228C0.996094 7.6903 1.04559 7.875 1.13959 8.03783C1.81439 9.20533 5.424 15 11.7328 15H12.0006C17.9238 14.85 21.362 9.64449 22.2831 8.03783C22.3772 7.875 22.4266 7.6903 22.4266 7.50228C22.4266 7.31426 22.3772 7.12956 22.2831 6.96673ZM11.947 12.8578C7.33056 12.9649 4.32077 9.01254 3.3782 7.50228C4.4493 5.77781 7.24487 2.25388 11.5293 2.14677C16.1243 2.02895 19.1448 5.99203 20.0981 7.50228C18.9949 9.22676 16.2314 12.7507 11.947 12.8578Z" fill="#CAC4D0"/>
<path d="M11 4.5C10.3078 4.5 9.63108 4.70527 9.05551 5.08986C8.47993 5.47444 8.03133 6.02107 7.76642 6.66061C7.50152 7.30015 7.4322 8.00388 7.56725 8.68282C7.7023 9.36175 8.03564 9.98539 8.52513 10.4749C9.01461 10.9644 9.63825 11.2977 10.3172 11.4327C10.9961 11.5678 11.6999 11.4985 12.3394 11.2336C12.9789 10.9687 13.5256 10.5201 13.9101 9.9445C14.2947 9.36892 14.5 8.69223 14.5 8C14.5 7.07174 14.1313 6.1815 13.4749 5.52513C12.8185 4.86875 11.9283 4.5 11 4.5ZM11 9.5C10.7033 9.5 10.4133 9.41203 10.1666 9.2472C9.91997 9.08238 9.72771 8.84811 9.61418 8.57403C9.50065 8.29994 9.47095 7.99834 9.52882 7.70736C9.5867 7.41639 9.72956 7.14912 9.93934 6.93934C10.1491 6.72956 10.4164 6.5867 10.7074 6.52882C10.9983 6.47094 11.2999 6.50065 11.574 6.61418C11.8481 6.72771 12.0824 6.91997 12.2472 7.16665C12.412 7.41332 12.5 7.70333 12.5 8C12.5 8.39782 12.342 8.77936 12.0607 9.06066C11.7794 9.34196 11.3978 9.5 11 9.5Z" fill="#CAC4D0"/>
</svg>
