<svg width="20" height="20" viewBox="0 0 20 20" fill="none" xmlns="http://www.w3.org/2000/svg">
<path d="M9.98886 17C10.8901 17 11.7131 16.897 12.4638 16.719L10.79 14.962C10.53 14.983 10.2661 15 9.98886 15C4.89125 15 2.91641 11.154 2.43818 9.99997C2.79728 9.15878 3.28227 8.38331 3.87477 7.70297L2.54297 6.30497C1.0778 7.97197 0.522411 9.65097 0.511931 9.68397C0.446218 9.88933 0.446218 10.1116 0.511931 10.317C0.531937 10.383 2.71731 17 9.98886 17ZM9.98886 2.99997C8.23885 2.99997 6.8013 3.39597 5.60287 3.98097L2.08856 0.292969L0.741519 1.70697L17.8892 19.707L19.2362 18.293L16.0744 14.974C18.5646 13.023 19.4534 10.359 19.4667 10.317C19.5324 10.1116 19.5324 9.88933 19.4667 9.68397C19.4458 9.61697 17.2604 2.99997 9.98886 2.99997ZM14.7254 13.558L12.5534 11.278C12.7344 10.888 12.8468 10.459 12.8468 9.99997C12.8468 8.35897 11.5521 6.99997 9.98886 6.99997C9.55159 6.99997 9.14291 7.11797 8.77233 7.30897L7.04994 5.50097C7.99546 5.16038 8.98925 4.99097 9.98886 4.99997C15.0865 4.99997 17.0613 8.84597 17.5395 9.99997C17.2518 10.692 16.4287 12.342 14.7254 13.558Z" fill="#CAC4D0"/>
</svg>
