<svg width="10" height="10" viewBox="0 0 10 10" fill="none" xmlns="http://www.w3.org/2000/svg">
<path d="M1.50193 8.8994C1.48492 8.96892 1.48462 9.04121 1.50104 9.11086C1.51746 9.18051 1.55018 9.2457 1.59676 9.30156C1.64333 9.35741 1.70254 9.40248 1.76996 9.43338C1.83737 9.46429 1.91124 9.48022 1.98602 9.48C2.0841 9.48002 2.17998 9.45231 2.26158 9.40037L4.96504 7.67992L7.6685 9.40037C7.75307 9.45398 7.85281 9.48157 7.9543 9.47944C8.05579 9.47732 8.15417 9.44558 8.2362 9.38849C8.31823 9.3314 8.37998 9.2517 8.41314 9.16011C8.4463 9.06852 8.44929 8.96944 8.42169 8.87618L7.51359 5.84288L9.76573 3.9082C9.83786 3.8462 9.88937 3.76538 9.91389 3.67573C9.93842 3.58609 9.93487 3.49154 9.9037 3.40379C9.87254 3.31605 9.81511 3.23895 9.73852 3.18202C9.66193 3.1251 9.56955 3.09086 9.47279 3.08352L6.64223 2.86835L5.41736 0.280091C5.37835 0.196728 5.3149 0.125924 5.23467 0.0762236C5.15443 0.026523 5.06085 5.01817e-05 4.9652 7.12724e-08C4.86956 -5.00392e-05 4.77594 0.0263247 4.69565 0.0759412C4.61536 0.125558 4.55183 0.196295 4.51273 0.279617L3.28785 2.86835L0.457292 3.08305C0.36219 3.09024 0.271271 3.12344 0.195414 3.17866C0.119557 3.23389 0.0619731 3.3088 0.0295516 3.39445C-0.00286998 3.4801 -0.0087563 3.57285 0.0125969 3.66161C0.03395 3.75036 0.0816385 3.83137 0.149957 3.89493L2.24222 5.84146L1.50193 8.8994ZM4.96504 1.62612L5.9789 3.76886L6.27084 3.79114H6.27134L8.24345 3.94043L6.61939 5.33575L6.61889 5.3367L6.38901 5.53386L6.47391 5.81681V5.81823L7.09603 7.89652L4.96504 6.54054V1.62612Z" fill="#FECD33" fill-opacity="0.8"/>
</svg>
