<svg width="22" height="22" viewBox="0 0 22 22" fill="none" xmlns="http://www.w3.org/2000/svg">
<path d="M21.1834 10.8359L12.1271 1.78437L11.5201 1.17734C11.3818 1.03994 11.1948 0.96283 10.9998 0.96283C10.8048 0.96283 10.6178 1.03994 10.4795 1.17734L0.81621 10.8359C0.674486 10.9771 0.56248 11.1452 0.486801 11.3304C0.411123 11.5156 0.373307 11.714 0.375585 11.9141C0.38496 12.7391 1.07168 13.3977 1.89668 13.3977H2.89277V21.0312H19.1068V13.3977H20.124C20.5248 13.3977 20.9021 13.2406 21.1857 12.957C21.3254 12.8178 21.436 12.6523 21.5113 12.4701C21.5865 12.2878 21.6248 12.0925 21.624 11.8953C21.624 11.4969 21.467 11.1195 21.1834 10.8359V10.8359ZM12.3123 19.3437H9.6873V14.5625H12.3123V19.3437ZM17.4193 11.7102V19.3437H13.8123V14C13.8123 13.482 13.3928 13.0625 12.8748 13.0625H9.1248C8.60684 13.0625 8.1873 13.482 8.1873 14V19.3437H4.58027V11.7102H2.33027L11.0021 3.04531L11.5436 3.58672L19.6717 11.7102H17.4193Z" fill="#1C548B"/>
</svg>
