<svg width="12" height="10" viewBox="0 0 12 10" fill="none" xmlns="http://www.w3.org/2000/svg">
<path d="M9.72292 1.89827L6.66667 6.24941L4.47083 3.1262C4.21042 2.75544 3.78958 2.75544 3.52917 3.1262L0.19525 7.87182C-0.0650833 8.24257 -0.0650833 8.84171 0.19525 9.21246C0.455625 9.5838 0.877708 9.5838 1.13813 9.21246L3.98125 5.14012L6.19583 8.26333C6.45625 8.63409 6.87708 8.63409 7.1375 8.26333L10.6667 3.24187V5.72146C10.6667 6.21975 10.9646 6.67058 11.3333 6.67058C11.7021 6.67058 12 6.21975 12 5.72146V0.949142C12 0.424158 11.7021 1.81198e-05 11.3333 1.81198e-05H8C7.63125 1.81198e-05 7.33333 0.424158 7.33333 0.949142C7.33333 1.47413 7.63125 1.89827 8 1.89827H9.72292Z" fill="#2CBD96"/>
</svg>
