<svg width="26" height="26" viewBox="0 0 26 26" fill="none" xmlns="http://www.w3.org/2000/svg">
<circle cx="13" cy="13" r="13" fill="url(#paint0_linear_10_251)" fill-opacity="0.8"/>
<g clip-path="url(#clip0_10_251)">
<path d="M11.1833 22C10.3774 22 9.72218 21.4653 9.72218 20.8063V5.37448C9.72218 4.71548 10.3774 4.18076 11.1833 4.18076C11.9891 4.18076 12.6444 4.71548 12.6444 5.37448V20.8063C12.6406 21.4653 11.9891 22 11.1833 22Z" fill="#D8D8D8"/>
<path d="M11.1833 18.1665C10.3774 18.1665 9.72218 17.6318 9.72218 16.9728V5.19372C9.72218 4.53473 10.3774 4 11.1833 4C11.9891 4 12.6444 4.53473 12.6444 5.19372V16.9728C12.6406 17.6318 11.9891 18.1665 11.1833 18.1665Z" fill="white"/>
<path d="M6.46109 22C5.65523 22 5 21.4653 5 20.8063V9.71631C5 9.05731 5.65523 8.52258 6.46109 8.52258C7.26695 8.52258 7.92218 9.05731 7.92218 9.71631V20.8063C7.91841 21.4653 7.26695 22 6.46109 22Z" fill="#D8D8D8"/>
<path d="M6.46109 19.2473C5.65523 19.2473 5 18.7126 5 18.0536V9.58829C5 8.92929 5.65523 8.39456 6.46109 8.39456C7.26695 8.39456 7.92218 8.92929 7.92218 9.58829V18.0536C7.91841 18.7126 7.26695 19.2473 6.46109 19.2473Z" fill="white"/>
<path d="M15.9017 22C15.0958 22 14.4406 21.4653 14.4406 20.8063V9.71631C14.4406 9.05731 15.0958 8.52258 15.9017 8.52258C16.7075 8.52258 17.3628 9.05731 17.3628 9.71631V20.8063C17.3628 21.4653 16.7075 22 15.9017 22Z" fill="#D8D8D8"/>
<path d="M15.9017 19.2473C15.0958 19.2473 14.4406 18.7126 14.4406 18.0536V9.58829C14.4406 8.92929 15.0958 8.39456 15.9017 8.39456C16.7075 8.39456 17.3628 8.92929 17.3628 9.58829V18.0536C17.3628 18.7126 16.7075 19.2473 15.9017 19.2473Z" fill="white"/>
<path d="M20.6239 22C19.818 22 19.1628 21.5556 19.1628 21.0058V11.7912C19.1628 11.2414 19.818 10.7971 20.6239 10.7971C21.4297 10.7971 22.0849 11.2414 22.0849 11.7912V21.0096C22.0849 21.5556 21.4297 22 20.6239 22Z" fill="#D8D8D8"/>
<path d="M20.6239 19.7105C19.818 19.7105 19.1628 19.2661 19.1628 18.7163V11.682C19.1628 11.1322 19.818 10.6879 20.6239 10.6879C21.4297 10.6879 22.0849 11.1322 22.0849 11.682V18.7163C22.0849 19.2661 21.4297 19.7105 20.6239 19.7105Z" fill="white"/>
</g>
<defs>
<linearGradient id="paint0_linear_10_251" x1="13" y1="0" x2="13" y2="26" gradientUnits="userSpaceOnUse">
<stop stop-color="#1C8DFF"/>
<stop offset="1" stop-color="#A3CFFB"/>
</linearGradient>
<clipPath id="clip0_10_251">
<rect width="17.0849" height="18" fill="white" transform="translate(5 4)"/>
</clipPath>
</defs>
</svg>
