<svg width="4" height="14" viewBox="0 0 4 14" fill="none" xmlns="http://www.w3.org/2000/svg">
<path d="M3.5999 11.8C3.5999 12.2244 3.43133 12.6313 3.13127 12.9314C2.83121 13.2315 2.42425 13.4 1.9999 13.4C1.57556 13.4 1.16859 13.2315 0.868532 12.9314C0.568474 12.6313 0.399902 12.2244 0.399902 11.8C0.399902 11.3757 0.568474 10.9687 0.868532 10.6687C1.16859 10.3686 1.57556 10.2 1.9999 10.2C2.42425 10.2 2.83121 10.3686 3.13127 10.6687C3.43133 10.9687 3.5999 11.3757 3.5999 11.8ZM3.5999 7.00002C3.5999 7.42437 3.43133 7.83134 3.13127 8.13139C2.83121 8.43145 2.42425 8.60002 1.9999 8.60002C1.57556 8.60002 1.16859 8.43145 0.868532 8.13139C0.568474 7.83134 0.399902 7.42437 0.399902 7.00002C0.399902 6.57568 0.568474 6.16871 0.868532 5.86865C1.16859 5.5686 1.57556 5.40002 1.9999 5.40002C2.42425 5.40002 2.83121 5.5686 3.13127 5.86865C3.43133 6.16871 3.5999 6.57568 3.5999 7.00002ZM3.5999 2.20002C3.5999 2.62437 3.43133 3.03134 3.13127 3.3314C2.83121 3.63145 2.42425 3.80002 1.9999 3.80002C1.57556 3.80002 1.16859 3.63145 0.868532 3.3314C0.568474 3.03134 0.399902 2.62437 0.399902 2.20002C0.399902 1.77568 0.568474 1.36871 0.868532 1.06865C1.16859 0.768596 1.57556 0.600024 1.9999 0.600024C2.42425 0.600024 2.83121 0.768596 3.13127 1.06865C3.43133 1.36871 3.5999 1.77568 3.5999 2.20002Z" fill="white"/>
</svg>
