<svg width="26" height="26" viewBox="0 0 26 26" fill="none" xmlns="http://www.w3.org/2000/svg">
<circle cx="13" cy="13" r="13" fill="url(#paint0_linear_10_253)" fill-opacity="0.8"/>
<g clip-path="url(#clip0_10_253)">
<path d="M13.0778 18.1837C12.0936 18.1837 11.1049 18.1931 10.1207 18.1837C9.49812 18.179 9.26009 17.9356 9.25551 17.3038C9.24635 15.7732 9.24635 14.2427 9.25551 12.7121C9.26009 12.0615 9.51643 11.7948 10.1573 11.7901C12.1302 11.7807 14.0986 11.7807 16.0716 11.7901C16.7124 11.7948 16.9642 12.0569 16.9642 12.7168C16.9688 14.2474 16.9688 15.7779 16.9642 17.3084C16.9596 17.9356 16.7216 18.179 16.0899 18.1837C15.0874 18.1884 14.0849 18.1837 13.0778 18.1837ZM13.6729 16.5221C13.6729 16.3723 13.6775 16.3021 13.6729 16.2272C13.6409 15.6 13.357 14.9728 13.8102 14.355C13.8972 14.238 13.6775 13.7185 13.4806 13.5968C13.2792 13.4704 12.8215 13.5032 12.6613 13.6576C12.4827 13.8355 12.3591 14.3363 12.4736 14.5188C12.7436 14.9354 12.675 15.3192 12.6155 15.7358C12.5789 15.9838 12.5697 16.2366 12.5422 16.5221C12.9451 16.5221 13.2792 16.5221 13.6729 16.5221Z" fill="white"/>
<path d="M20.2189 12.8713C20.5897 12.8526 20.965 12.8385 21.4869 12.8151C21.3221 11.9539 21.2351 11.1208 21.0062 10.3344C19.8847 6.53381 16.1997 4.03908 12.3408 4.43692C11.9105 4.48373 11.5214 4.45565 11.3521 3.96887C11.1827 3.48209 11.5077 3.07956 12.1303 3.03276C15.6687 2.75661 18.5755 4.01568 20.7774 6.86613C22.0225 8.47624 22.6679 10.3391 22.764 12.3939C22.7686 12.5202 22.7869 12.6466 22.8052 12.8432C23.2172 12.8432 23.6063 12.8432 24 12.8432C23.9954 13.2972 22.645 15.4362 22.0454 15.9604C21.3999 14.9822 20.7545 14.0087 20.1136 13.0398C20.1502 12.9836 20.1868 12.9274 20.2189 12.8713Z" fill="white"/>
<path d="M4.11028 9.91318C4.83812 11.0178 5.46983 11.9773 6.19767 13.0866C5.65751 13.1194 5.27757 13.1428 4.80608 13.1708C4.85185 13.6483 4.86101 14.107 4.93883 14.5516C5.71244 18.9607 9.56221 21.9516 13.9201 21.5443C14.5152 21.4882 14.8585 21.7082 14.8997 22.1622C14.9409 22.6256 14.6479 22.897 14.0529 22.9532C8.50936 23.4774 3.74407 19.2462 3.45568 13.5453C3.4511 13.4376 3.43737 13.3253 3.41906 13.1662C3.0025 13.1428 2.59509 13.124 2 13.0913C2.73242 11.9913 3.37328 11.0225 4.11028 9.91318Z" fill="white"/>
<path d="M11.7732 11.4952C11.2742 11.4952 10.876 11.4952 10.3221 11.4952C10.4091 10.4936 10.3816 9.4966 10.6105 8.56517C10.908 7.36226 12.0341 6.80528 13.499 6.92697C14.6525 7.02058 15.536 7.79756 15.7374 8.94897C15.8198 9.41703 15.8107 9.89912 15.8519 10.4561C15.417 10.4561 15.0553 10.4748 14.6983 10.4421C14.6067 10.4327 14.4969 10.2689 14.4603 10.1566C14.4191 10.0208 14.4511 9.86168 14.4465 9.7119C14.4328 8.67282 13.943 8.21881 12.9313 8.29369C12.1943 8.34986 11.7961 8.74771 11.7686 9.50596C11.7549 10.1566 11.7732 10.8025 11.7732 11.4952Z" fill="white"/>
<path d="M7.02622 6.82867C6.64627 6.81931 6.33042 6.48231 6.34415 6.10319C6.35788 5.72874 6.71036 5.39174 7.07657 5.43387C7.47482 5.47599 7.7037 5.71938 7.72659 6.12659C7.7449 6.50572 7.40158 6.83804 7.02622 6.82867Z" fill="white"/>
<path d="M5.9871 8.29369C5.96879 8.68217 5.63463 8.99109 5.25468 8.94896C4.85185 8.90684 4.63671 8.65409 4.62297 8.24688C4.61382 7.85372 4.94341 7.5448 5.32793 7.55884C5.71702 7.57288 6.00999 7.90052 5.9871 8.29369Z" fill="white"/>
<path d="M21.5968 17.6969C21.6105 18.0901 21.3084 18.4177 20.9284 18.4271C20.5485 18.4365 20.2189 18.1182 20.2326 17.7297C20.2464 17.3178 20.4707 17.0791 20.8689 17.0323C21.2534 16.9948 21.583 17.3084 21.5968 17.6969Z" fill="white"/>
<path d="M19.2072 20.5567C18.8365 20.5708 18.4794 20.2432 18.4977 19.8687C18.516 19.4709 18.7266 19.2088 19.134 19.1619C19.5094 19.1198 19.8527 19.4334 19.8756 19.8172C19.8939 20.1917 19.578 20.5427 19.2072 20.5567Z" fill="white"/>
<path d="M17.6325 21.4273C17.5822 21.8626 17.3442 22.1107 16.9184 22.0966C16.5156 22.0826 16.2959 21.8345 16.2821 21.418C16.2684 21.0108 16.566 20.6972 16.9551 20.7159C17.3808 20.7393 17.5959 21.0014 17.6325 21.4273Z" fill="white"/>
<path d="M9.95132 4.5352C9.92385 5.00326 9.70413 5.27005 9.27383 5.26537C8.84811 5.26069 8.60092 4.99858 8.6055 4.56328C8.61008 4.15608 8.84811 3.90801 9.25094 3.89397C9.68582 3.87056 9.90096 4.13267 9.95132 4.5352Z" fill="white"/>
</g>
<defs>
<linearGradient id="paint0_linear_10_253" x1="13" y1="0" x2="13" y2="26" gradientUnits="userSpaceOnUse">
<stop stop-color="#1C8DFF"/>
<stop offset="1" stop-color="#A3CFFB"/>
</linearGradient>
<clipPath id="clip0_10_253">
<rect width="22" height="20" fill="white" transform="translate(2 3)"/>
</clipPath>
</defs>
</svg>
