<svg width="24" height="24" viewBox="0 0 24 24" fill="none" xmlns="http://www.w3.org/2000/svg">
<g clip-path="url(#clip0_14_399)">
<path d="M13.6794 5.64927C13.7819 5.64927 13.8578 5.64927 13.9337 5.64927C14.8482 5.64927 15.7627 5.63816 16.6809 5.65667C16.9466 5.66037 17.2274 5.70108 17.4778 5.79361C18.2253 6.06379 18.6617 6.71888 18.6655 7.54423C18.6693 11.1343 18.6693 14.7243 18.6655 18.3144C18.6655 19.2397 18.1001 19.9503 17.2274 20.1502C17.0528 20.1909 16.8669 20.2094 16.6885 20.2094C11.7859 20.2131 6.88715 20.2131 1.98456 20.2131C1.01315 20.2131 0.273209 19.6727 0.0645078 18.8067C0.0227674 18.629 0.00379457 18.4439 0.00379457 18.2626C0 14.7021 0 11.1491 0 7.59974C0 6.63376 0.546419 5.91575 1.44573 5.71219C1.62028 5.67147 1.80622 5.65297 1.98456 5.65297C2.89905 5.64557 3.81355 5.64927 4.73183 5.64927C4.80772 5.64927 4.88362 5.64927 4.98607 5.64927C4.98607 5.55674 4.98607 5.48272 4.98607 5.4087C4.99745 4.79432 4.98986 4.17993 5.02402 3.56925C5.06955 2.80683 5.8019 2.10732 6.58738 2.037C6.82644 2.01479 7.0655 2.00369 7.30455 2.00369C8.77305 1.99999 10.2378 1.99999 11.7063 2.00369C12.1237 2.00369 12.5183 2.09252 12.8636 2.32939C13.4328 2.718 13.6681 3.26947 13.6756 3.92826C13.6832 4.48712 13.6794 5.05339 13.6794 5.64927ZM14.3245 6.84472C10.9929 6.84472 7.67263 6.84472 4.34099 6.84472C4.34099 10.9048 4.34099 14.9538 4.34099 19.0139C7.67263 19.0139 10.9929 19.0139 14.3245 19.0139C14.3245 14.9501 14.3245 10.9048 14.3245 6.84472ZM3.10017 19.0176C3.10017 14.9464 3.10017 10.8974 3.10017 6.84472C3.06222 6.83732 3.04325 6.83362 3.02428 6.83362C2.66 6.83362 2.29572 6.85212 1.93523 6.82622C1.51783 6.79661 1.20288 7.1112 1.20667 7.54053C1.21806 10.9011 1.21426 14.2654 1.21426 17.626C1.21426 17.8999 1.21047 18.1701 1.21426 18.4439C1.21806 18.7178 1.44194 18.9991 1.71515 19.0139C2.17429 19.0361 2.63343 19.0176 3.10017 19.0176ZM15.5615 6.83362C15.5615 10.9048 15.5615 14.9538 15.5615 19.025C15.9524 19.025 16.3356 19.0028 16.7151 19.0324C17.1629 19.0657 17.4626 18.7326 17.4588 18.3107C17.4474 14.7206 17.4512 11.1343 17.4512 7.54423C17.4512 7.48871 17.455 7.42949 17.4474 7.37398C17.4247 7.1075 17.1742 6.84842 16.901 6.84102C16.4647 6.82622 16.0245 6.83362 15.5615 6.83362ZM12.4652 5.64187C12.4652 5.55304 12.4652 5.48272 12.4652 5.4161C12.4652 4.90165 12.4652 4.3909 12.4652 3.87644C12.4652 3.42121 12.2261 3.18434 11.7632 3.18434C10.6931 3.18434 9.62304 3.18434 8.55297 3.18434C7.97619 3.18434 7.39942 3.18064 6.81885 3.18434C6.49252 3.18434 6.20792 3.42491 6.20033 3.7247C6.18895 4.34278 6.20033 4.96457 6.20033 5.58635C6.20033 5.60115 6.21551 5.61966 6.2269 5.64187C8.29873 5.64187 10.3668 5.64187 12.4652 5.64187Z" fill="#1C548B"/>
<path d="M17.1096 23C20.8798 23 23.9361 20.019 23.9361 16.3417C23.9361 12.6645 20.8798 9.68347 17.1096 9.68347C13.3395 9.68347 10.2832 12.6645 10.2832 16.3417C10.2832 20.019 13.3395 23 17.1096 23Z" fill="#1D1D1D"/>
<path d="M17.1097 10.0425C13.5428 10.0425 10.6514 12.8627 10.6514 16.3417C10.6514 19.8208 13.5428 22.641 17.1097 22.641C20.6766 22.641 23.5681 19.8208 23.5681 16.3417C23.5681 12.8627 20.6804 10.0425 17.1097 10.0425ZM17.1097 21.3863C14.2524 21.3863 11.9377 19.1287 11.9377 16.3417C11.9377 13.5548 14.2524 11.2972 17.1097 11.2972C19.967 11.2972 22.2817 13.5548 22.2817 16.3417C22.2817 19.1287 19.967 21.3863 17.1097 21.3863Z" fill="#1C548B"/>
<path d="M17.1099 20.8053C19.6373 20.8053 21.6862 18.8069 21.6862 16.3418C21.6862 13.8766 19.6373 11.8782 17.1099 11.8782C14.5826 11.8782 12.5337 13.8766 12.5337 16.3418C12.5337 18.8069 14.5826 20.8053 17.1099 20.8053Z" fill="#1C548B"/>
<g clip-path="url(#clip1_14_399)">
<path d="M18.5905 16.3347C19.7985 16.1935 19.7327 15.1408 19.7327 15.1408C19.7261 14.1747 18.7057 14.0078 18.7057 14.0078H17.9322V13H17.2838V14.0046H16.8789V13H16.2009V14.0014H14.9929V14.6048H15.6446V18.3792L14.96 18.3728V19.0083H16.1976V20.0032H16.8789V19.0083H17.2772V20.0032H17.9322V19.0018H18.709C19.8348 18.8831 19.9401 17.8464 19.9401 17.8464C20.0257 16.3572 18.5905 16.3347 18.5905 16.3347ZM16.8493 14.7331H17.8467C18.2351 14.7331 18.5543 15.0413 18.5543 15.4232V15.4713C18.5543 15.8083 18.2746 16.0812 17.9289 16.0812H16.8493V14.7331ZM18.5543 17.5351C18.5543 17.8721 18.2746 18.1449 17.9289 18.1449H16.8493V16.7969H17.8467C18.2351 16.7969 18.5543 17.105 18.5543 17.4869V17.5351Z" fill="#1D1D1D"/>
</g>
</g>
<defs>
<clipPath id="clip0_14_399">
<rect width="23.9362" height="21" fill="white" transform="translate(0 2)"/>
</clipPath>
<clipPath id="clip1_14_399">
<rect width="4.9867" height="7" fill="white" transform="translate(14.96 13)"/>
</clipPath>
</defs>
</svg>
