<svg width="22" height="19" viewBox="0 0 22 19" fill="none" xmlns="http://www.w3.org/2000/svg">
<g clip-path="url(#clip0_14_381)">
<path d="M12.2525 2.58512C12.2594 2.66569 12.2697 2.72174 12.2663 2.77428C12.2559 3.48888 12.2456 4.20349 12.2318 4.91458C12.2284 5.0547 12.218 5.19482 12.218 5.33844C12.218 5.38748 12.2422 5.43652 12.2559 5.48907C12.2973 5.48206 12.3248 5.48206 12.3421 5.46805C12.4248 5.412 12.5075 5.35245 12.5902 5.29641C12.7176 5.21233 12.8451 5.12826 12.9726 5.04419C12.9933 5.03018 13.014 5.01967 13.0346 5.00566C13.1966 4.89357 13.3585 4.78497 13.517 4.67288C13.6548 4.5748 13.7892 4.47321 13.927 4.37863C14.12 4.24902 14.3129 4.12292 14.5059 3.99331C14.6162 3.91624 14.723 3.83568 14.8332 3.75861C15.0572 3.60448 15.2811 3.45736 15.5051 3.30323C15.7118 3.15961 15.9151 3.00898 16.1219 2.86536C16.2425 2.78129 16.37 2.70773 16.4905 2.62365C16.7076 2.47303 16.9212 2.3154 17.1383 2.16827C17.2727 2.07719 17.4105 1.99312 17.5449 1.89854C17.7413 1.76193 17.9342 1.62181 18.1306 1.4852C18.2271 1.41864 18.3305 1.35559 18.4339 1.28553C18.4235 1.26451 18.4166 1.247 18.4063 1.22948C18.2822 1.04382 18.1582 0.858168 18.0376 0.672512C17.948 0.5394 17.8584 0.406288 17.7792 0.269673C17.6999 0.129555 17.7654 0.0314722 17.9239 0.0314722C18.2512 0.0279693 18.5786 0.0279693 18.9024 0.0244663C19.8707 0.0174604 20.8389 0.0104545 21.8036 0.00344864C21.8656 0.00344864 21.9311 -0.0070602 21.9725 0.0665017C22.0035 0.122549 22.0104 0.168087 21.9862 0.224134C21.938 0.332726 21.8898 0.437814 21.8415 0.546406C21.7657 0.721553 21.6899 0.896701 21.6141 1.07535C21.5934 1.12439 21.5659 1.16993 21.5452 1.21897C21.4177 1.49921 21.2833 1.77594 21.1593 2.05618C21.0766 2.23833 21.0042 2.42749 20.925 2.61315C20.9043 2.66569 20.8733 2.71123 20.8492 2.76377C20.7183 3.05452 20.5908 3.34877 20.4633 3.63951C20.4392 3.69556 20.4254 3.75861 20.3978 3.81466C20.3668 3.88121 20.3255 3.94076 20.2428 3.94427C20.1635 3.94777 20.1256 3.89172 20.0877 3.83217C19.9396 3.60098 19.7845 3.37329 19.6364 3.14209C19.6053 3.09305 19.5778 3.037 19.5433 2.97395C19.4779 3.01248 19.4296 3.04051 19.3814 3.06853C19.2126 3.17012 19.0472 3.2717 18.8783 3.37679C18.7302 3.47137 18.5855 3.56945 18.4407 3.66403C18.3443 3.72708 18.2409 3.78313 18.141 3.84618C17.9825 3.94427 17.824 4.04235 17.6655 4.14043C17.5104 4.23501 17.3519 4.32959 17.1969 4.42767C17.0522 4.51875 16.9075 4.61333 16.7627 4.70791C16.5836 4.82 16.4044 4.9321 16.2252 5.04419C16.0564 5.14928 15.8876 5.25437 15.7153 5.35596C15.5844 5.43302 15.45 5.50658 15.319 5.58715C15.1847 5.67122 15.0537 5.7658 14.9194 5.84987C14.7884 5.93044 14.6506 6.004 14.5162 6.08457C14.3784 6.16864 14.2475 6.25621 14.1097 6.34379C13.9615 6.43486 13.8133 6.52594 13.6652 6.61702C13.5377 6.69758 13.4102 6.77815 13.2827 6.85872C13.1414 6.94629 12.9967 7.03387 12.852 7.12144C12.7107 7.20902 12.5729 7.30009 12.4317 7.38767C12.3007 7.46823 12.1698 7.5453 12.0389 7.62587C11.8941 7.71694 11.7494 7.81152 11.6013 7.9026C11.4807 7.97966 11.3566 8.05323 11.236 8.13029C11.0775 8.22837 10.9156 8.32646 10.7606 8.43155C10.6951 8.47708 10.6434 8.47358 10.5814 8.42104C10.5814 8.3825 10.5814 8.33697 10.5814 8.29493C10.5952 7.51377 10.6089 6.73612 10.6193 5.95496C10.6193 5.90592 10.6021 5.85688 10.5917 5.80083C10.5435 5.80784 10.5159 5.80784 10.4918 5.82185C10.4125 5.87089 10.3402 5.92343 10.2644 5.97247C10.1231 6.06705 9.98185 6.16163 9.84058 6.25972C9.70621 6.3543 9.57527 6.45238 9.4409 6.54696C9.33753 6.62052 9.23761 6.69058 9.13424 6.76414C8.98953 6.86573 8.84826 6.96381 8.70354 7.06189C8.58295 7.14246 8.45546 7.21952 8.33487 7.3036C8.19704 7.39818 8.06611 7.49626 7.92829 7.59084C7.73534 7.72395 7.54239 7.85006 7.34943 7.98317C7.13581 8.13379 6.92563 8.28792 6.712 8.43855C6.60519 8.51562 6.49493 8.58567 6.38467 8.65924C6.3261 8.69777 6.27097 8.74331 6.21239 8.78184C6.10903 8.8519 6.00566 8.92196 5.90229 8.99202C5.83338 9.03756 5.76791 9.0901 5.699 9.13564C5.60942 9.19519 5.51983 9.25124 5.43025 9.31429C5.1925 9.48243 4.95476 9.65057 4.71357 9.81521C4.59297 9.89928 4.46549 9.97284 4.34489 10.0569C4.16572 10.1795 3.98655 10.3021 3.80738 10.4282C3.69023 10.5123 3.57308 10.5158 3.45593 10.4387C3.34567 10.3652 3.29055 10.2566 3.30433 10.12C3.31466 10.0079 3.38013 9.9238 3.45938 9.85374C3.65578 9.6891 3.85217 9.52797 4.04857 9.36683C4.13471 9.29677 4.2243 9.22671 4.31388 9.15666C4.38624 9.09711 4.46204 9.03756 4.5344 8.97801C4.686 8.8484 4.83761 8.71879 4.98921 8.58918C5.14082 8.45957 5.28898 8.32646 5.44058 8.20035C5.61975 8.04972 5.80237 7.9061 5.98154 7.75548C6.07457 7.67841 6.16416 7.59084 6.25719 7.51377C6.41913 7.37716 6.58452 7.24405 6.74646 7.11093C6.86016 7.01635 6.96697 6.91827 7.08068 6.82369C7.17371 6.74663 7.27708 6.68007 7.37011 6.5995C7.48726 6.50142 7.60096 6.39633 7.71811 6.29475C7.80769 6.21768 7.90073 6.14412 7.99376 6.07056C8.06611 6.01101 8.13847 5.95496 8.20738 5.89541C8.36243 5.7623 8.51748 5.62919 8.67253 5.49958C8.78968 5.40149 8.91028 5.31042 9.02743 5.20883C9.26862 5.00216 9.50981 4.78848 9.751 4.5818C9.84748 4.49773 9.95429 4.42767 10.0542 4.34711C10.1541 4.26304 10.2506 4.17196 10.3505 4.08438C10.4884 3.96178 10.6296 3.84268 10.7709 3.72358C11.0017 3.53092 11.2395 3.34526 11.4703 3.1526C11.5703 3.06853 11.6633 2.97745 11.7632 2.89338C11.8769 2.7988 11.9906 2.70422 12.1078 2.62015C12.1457 2.58512 12.1939 2.59213 12.2525 2.58512Z" fill="#1C8DFF" fill-opacity="0.6"/>
<path d="M21.9621 8.50165C21.9621 8.77488 21.9655 9.04811 21.9586 9.31784C21.9586 9.37389 21.938 9.43344 21.9173 9.48949C21.8484 9.67164 21.7381 9.82927 21.6141 9.97289C21.5452 10.0535 21.459 10.12 21.3729 10.1796C21.2282 10.2847 21.0869 10.3932 20.9284 10.4738C20.7527 10.5649 20.5632 10.6279 20.3771 10.6945C20.2152 10.7505 20.0498 10.8101 19.881 10.8416C19.1298 10.9712 18.3821 11.0238 17.6241 10.8732C17.3898 10.8276 17.1589 10.7646 16.9281 10.7015C16.6697 10.6279 16.425 10.5229 16.2011 10.3757C16.0874 10.3022 15.9702 10.2286 15.86 10.141C15.6842 10.0009 15.5326 9.83277 15.4396 9.63311C15.3397 9.41943 15.2983 9.18823 15.3087 8.94303C15.3225 8.62426 15.3052 8.30549 15.3121 7.98672C15.3156 7.8431 15.3466 7.69598 15.3776 7.55586C15.4327 7.30364 15.5947 7.11449 15.7669 6.94985C15.922 6.79922 16.1012 6.67311 16.2941 6.56803C16.5353 6.43842 16.7903 6.34384 17.0452 6.26677C17.3174 6.1862 17.6 6.12665 17.8825 6.08812C18.3373 6.02507 18.799 6.03908 19.2539 6.07061C19.5157 6.08812 19.7707 6.1757 20.0326 6.21773C20.2427 6.24926 20.4322 6.33683 20.6286 6.40339C20.8767 6.48746 21.1007 6.62057 21.3109 6.7712C21.5968 6.98137 21.8346 7.23709 21.9414 7.59439C21.9483 7.62241 21.9586 7.65044 21.9586 7.67496C21.9621 7.95169 21.9621 8.22842 21.9621 8.50165ZM15.9771 9.04111C15.9668 9.04811 15.9599 9.05162 15.9495 9.05862C15.9668 9.13919 15.9737 9.22326 16.0081 9.30033C16.1046 9.53152 16.2941 9.67864 16.494 9.80475C16.6283 9.88882 16.7834 9.94137 16.9315 10.0044C17.1142 10.0815 17.3037 10.141 17.5001 10.1796C18.0824 10.2987 18.6612 10.3512 19.2504 10.2706C19.4227 10.2461 19.595 10.2111 19.7604 10.1831C19.7604 10.0009 19.7604 9.83628 19.7604 9.65062C18.4373 9.8643 17.1555 9.78023 15.9771 9.04111ZM17.3657 7.88163C17.3691 8.60324 17.9308 9.18123 18.6543 9.18473C19.3745 9.18823 19.9671 8.56821 19.9395 7.82558C19.9189 7.18454 19.3745 6.57503 18.6543 6.57503C17.9308 6.57503 17.3622 7.17404 17.3657 7.88163ZM20.4322 10.0605C20.5804 10.0605 20.701 9.93786 20.7079 9.79074C20.7113 9.68915 20.5838 9.51401 20.446 9.5105C20.3048 9.507 20.1635 9.67164 20.1669 9.79424C20.1669 9.93086 20.291 10.0605 20.4322 10.0605Z" fill="#1C8DFF" fill-opacity="0.6"/>
<path d="M6.6703 14.9366C6.6634 15.1888 6.66685 15.4445 6.64273 15.6967C6.6255 15.8719 6.57037 16.0435 6.44633 16.1836C6.36708 16.2747 6.30851 16.3798 6.22582 16.4674C6.14657 16.5479 6.05009 16.6075 5.96051 16.6775C5.93294 16.6986 5.90538 16.7266 5.87092 16.7441C5.71243 16.8317 5.56082 16.9333 5.39543 17.0033C5.14391 17.1084 4.88204 17.1855 4.61673 17.2485C4.02754 17.3851 3.4349 17.3851 2.83537 17.3606C2.50115 17.3466 2.18416 17.2765 1.86372 17.1995C1.68455 17.1574 1.51916 17.0874 1.35033 17.0348C1.15737 16.9718 0.988541 16.8737 0.819707 16.7686C0.681884 16.681 0.547507 16.5795 0.426912 16.4674C0.26497 16.3167 0.140929 16.1346 0.0651262 15.9244C0.0237793 15.8053 0.00655143 15.6757 0.00310585 15.5461C-0.0037853 15.1362 -0.00723087 14.7264 0.00310585 14.3166C0.00655143 14.1064 0.0513439 13.9032 0.171939 13.714C0.302871 13.5144 0.457922 13.3462 0.647429 13.2096C0.785252 13.1115 0.919629 13.01 1.07123 12.9364C1.24007 12.8558 1.42613 12.7998 1.60185 12.7402C1.73279 12.6947 1.86372 12.6456 1.99809 12.6176C2.47358 12.5195 2.95596 12.4355 3.44524 12.467C3.73466 12.4845 4.02409 12.5336 4.31697 12.5581C4.56849 12.5791 4.80624 12.6527 5.04054 12.7297C5.17836 12.7753 5.31274 12.8243 5.44367 12.8838C5.58838 12.9469 5.73999 13.01 5.86748 13.101C6.0811 13.2552 6.29128 13.4198 6.44633 13.6475C6.5876 13.8542 6.65307 14.0819 6.65996 14.3306C6.6634 14.5337 6.65996 14.7369 6.65996 14.9401C6.6634 14.9366 6.66685 14.9366 6.6703 14.9366ZM0.661211 15.455C0.640537 15.6232 0.695667 15.7528 0.778361 15.8649C0.923075 16.068 1.12981 16.2046 1.34688 16.3062C1.51571 16.3868 1.69488 16.4569 1.87405 16.5164C2.27029 16.646 2.67343 16.6951 3.08345 16.7021C3.44524 16.7091 3.81047 16.681 4.17225 16.6635C4.26528 16.66 4.35487 16.625 4.44101 16.604C4.44101 16.4183 4.44101 16.2502 4.44101 16.0785C4.27562 16.1031 4.11712 16.1381 3.95518 16.1416C3.45902 16.1591 2.96286 16.1906 2.47014 16.1206C2.20827 16.082 1.94986 16.0085 1.69144 15.9419C1.58118 15.9139 1.47437 15.8579 1.36755 15.8123C1.19872 15.7388 1.02989 15.6582 0.8645 15.5776C0.795588 15.5426 0.733568 15.5006 0.661211 15.455ZM3.34187 15.6126C4.04477 15.5846 4.60984 15.0312 4.60984 14.299C4.60984 13.5459 4.02754 12.9889 3.3143 12.9924C2.6183 12.9959 2.04289 13.5774 2.04633 14.306C2.04978 15.0592 2.66998 15.6056 3.34187 15.6126ZM5.39199 16.2187C5.39543 16.068 5.28517 15.9524 5.12668 15.9454C4.98541 15.9384 4.85103 16.0575 4.85448 16.2046C4.85448 16.3518 4.9544 16.4814 5.10945 16.4954C5.24383 16.5059 5.40921 16.3308 5.39199 16.2187Z" fill="#1C8DFF" fill-opacity="0.6"/>
<path d="M14.3094 11.7138C14.3094 11.945 14.3163 12.1762 14.306 12.4074C14.2991 12.5651 14.2715 12.7227 14.1819 12.8593C14.082 13.0134 13.9752 13.1571 13.8408 13.2867C13.6513 13.4688 13.4273 13.5949 13.1999 13.7175C13.0483 13.7981 12.8864 13.8647 12.7244 13.9172C12.5005 13.9873 12.2765 14.0538 12.0457 14.0853C11.5082 14.1519 10.9672 14.2185 10.4262 14.1414C10.1816 14.1064 9.94042 14.0713 9.69923 14.0328C9.64066 14.0223 9.58553 14.0013 9.5304 13.9873C9.32022 13.9242 9.10315 13.8787 8.90675 13.7701C8.76204 13.6895 8.59665 13.6335 8.45882 13.5424C8.28999 13.4303 8.12116 13.3077 7.99367 13.1431C7.91442 13.0415 7.82828 12.9399 7.7766 12.8243C7.69391 12.6386 7.64911 12.4425 7.65256 12.2358C7.65601 11.8855 7.65601 11.5352 7.65256 11.1849C7.64911 10.9957 7.68702 10.8136 7.75937 10.6454C7.81106 10.5193 7.90064 10.4072 7.98334 10.3022C8.06258 10.2006 8.15217 10.106 8.25209 10.0254C8.35201 9.94486 8.46916 9.88531 8.57597 9.81525C8.77926 9.68214 9.00667 9.59457 9.23408 9.53151C9.54763 9.44394 9.86117 9.33885 10.1919 9.31433C10.4952 9.29331 10.7984 9.24777 11.1016 9.26179C11.3014 9.26879 11.5013 9.29681 11.7011 9.30732C11.9974 9.32484 12.2834 9.3949 12.566 9.48597C12.7692 9.54903 12.9794 9.60858 13.1724 9.69615C13.3309 9.76621 13.4721 9.8748 13.6203 9.96938C13.7168 10.0324 13.8132 10.1025 13.8925 10.1831C13.9752 10.2636 14.0407 10.3617 14.1096 10.4563C14.1475 10.5088 14.1854 10.5614 14.2164 10.6209C14.306 10.8066 14.3129 11.0098 14.3163 11.2129C14.3197 11.3811 14.3163 11.5527 14.3163 11.7209C14.3129 11.7138 14.3129 11.7138 14.3094 11.7138ZM8.321 12.2428C8.31411 12.2603 8.30722 12.2673 8.30722 12.2743C8.30377 12.2883 8.30377 12.3058 8.30722 12.3199C8.33478 12.5756 8.48294 12.7542 8.67245 12.8943C8.7896 12.9819 8.92742 13.0345 9.05146 13.1115C9.24442 13.2341 9.46493 13.2832 9.67856 13.3462C9.8405 13.3953 10.0162 13.4093 10.1851 13.4408C10.7536 13.5389 11.3187 13.5214 11.8837 13.4303C11.9561 13.4198 12.025 13.4093 12.0939 13.3988C12.0939 13.2166 12.0939 13.045 12.0939 12.8803C11.8355 12.8978 11.584 12.9119 11.3359 12.9364C10.9121 12.9784 10.4917 12.9539 10.0748 12.8978C9.76125 12.8558 9.45804 12.7437 9.15139 12.6596C9.08936 12.6421 9.03079 12.6106 8.97222 12.5826C8.79649 12.4985 8.62421 12.4179 8.44849 12.3304C8.4037 12.3094 8.36579 12.2743 8.321 12.2428ZM10.9879 12.4004C11.6529 12.4109 12.2834 11.8119 12.2731 11.0728C12.2627 10.3757 11.6839 9.78022 10.9948 9.78372C10.2815 9.78723 9.71301 10.3687 9.70612 11.0903C9.70268 11.8189 10.3229 12.4074 10.9879 12.4004ZM12.8898 12.7472C12.6349 12.7402 12.5453 12.7928 12.5143 12.9644C12.5005 13.045 12.5728 13.2166 12.6349 13.2446C12.783 13.3077 12.9415 13.2587 13.0173 13.1255C13.0897 12.9959 13.0552 12.8908 12.8898 12.7472Z" fill="#1C8DFF" fill-opacity="0.6"/>
<path d="M0.213688 16.7896C0.334284 16.9087 0.444542 17.0313 0.568583 17.1364C0.658168 17.217 0.764981 17.2765 0.868348 17.3431C0.895912 17.3606 0.923477 17.3851 0.954487 17.3991C1.13366 17.4832 1.30938 17.5813 1.49889 17.6479C1.72974 17.7284 1.96749 17.8055 2.20868 17.844C2.89435 17.9561 3.58346 17.9771 4.27602 17.8685C4.55856 17.823 4.82387 17.7389 5.09951 17.6759C5.17876 17.6584 5.25457 17.6163 5.33037 17.5813C5.50609 17.4972 5.68871 17.4237 5.8541 17.3186C6.00915 17.2205 6.14352 17.0874 6.28135 16.9648C6.34337 16.9087 6.38816 16.8387 6.45018 16.7686C6.52943 16.9578 6.54666 17.1504 6.50186 17.3466C6.45363 17.5673 6.36404 17.7775 6.21244 17.9421C6.06772 18.0997 5.90922 18.2574 5.7335 18.373C5.52332 18.5096 5.29591 18.6252 5.05817 18.7093C4.76185 18.8143 4.45519 18.8914 4.14164 18.9369C3.57657 19.0175 3.01494 19.0175 2.44987 18.9194C2.20523 18.8774 1.96749 18.8108 1.72974 18.7408C1.52645 18.6812 1.34039 18.5902 1.15778 18.4921C0.871793 18.3414 0.613375 18.1453 0.420423 17.8791C0.213688 17.5953 0.117212 17.2836 0.186124 16.9298C0.182678 16.8807 0.199906 16.8387 0.213688 16.7896Z" fill="#1C8DFF" fill-opacity="0.6"/>
<path d="M7.87338 16.7861C7.99398 16.9087 8.10768 17.0418 8.23861 17.1504C8.3661 17.2555 8.50737 17.3431 8.65208 17.4202C8.81058 17.5077 8.97597 17.5883 9.1448 17.6444C9.38254 17.7249 9.62373 17.802 9.87182 17.8405C10.3576 17.9176 10.8504 17.9736 11.3431 17.9281C11.5464 17.9106 11.7462 17.865 11.9461 17.8545C12.1321 17.844 12.3113 17.802 12.487 17.7459C12.6937 17.6794 12.9005 17.6198 13.1003 17.5253C13.2933 17.4307 13.4759 17.3256 13.6551 17.2065C13.817 17.0979 13.9341 16.9438 14.072 16.8072C14.0789 16.8001 14.0858 16.7966 14.103 16.7861C14.1719 16.9543 14.1822 17.1189 14.1581 17.2941C14.103 17.6794 13.8894 17.9666 13.5999 18.1978C13.4656 18.3064 13.3208 18.408 13.1692 18.4921C12.9625 18.6042 12.7489 18.7058 12.518 18.7618C12.3871 18.7968 12.2596 18.8494 12.1287 18.8739C11.4361 19.0035 10.7435 19.042 10.0475 18.9054C9.82013 18.8599 9.59961 18.8003 9.38254 18.7303C9.13791 18.6532 8.90705 18.5516 8.69343 18.408C8.56594 18.3239 8.43501 18.2434 8.32131 18.1418C8.18004 18.0227 8.05944 17.8791 7.9733 17.7144C7.81825 17.4202 7.75623 17.1154 7.87338 16.7896C7.86994 16.7896 7.87338 16.7861 7.87338 16.7861Z" fill="#1C8DFF" fill-opacity="0.6"/>
<path d="M21.7763 16.7756C21.8107 16.9542 21.8245 17.1364 21.8107 17.322C21.8004 17.5147 21.7074 17.6758 21.6074 17.823C21.5144 17.9631 21.3869 18.0857 21.2594 18.1908C21.1044 18.3169 20.939 18.4325 20.7667 18.527C20.6151 18.6111 20.4463 18.6637 20.2843 18.7232C20.1258 18.7793 19.9639 18.8388 19.7985 18.8703C19.3506 18.9509 18.8992 19.0245 18.441 18.9894C18.1825 18.9684 17.9276 18.9159 17.6726 18.8949C17.4521 18.8773 17.2453 18.8073 17.042 18.7302C16.8732 18.6672 16.6975 18.6146 16.539 18.5305C16.3771 18.4465 16.2289 18.3309 16.0807 18.2223C15.9946 18.1592 15.9119 18.0927 15.8395 18.0121C15.7603 17.9245 15.6845 17.8265 15.6294 17.7214C15.5398 17.5497 15.4605 17.3746 15.464 17.1714C15.464 17.0383 15.4709 16.9017 15.5536 16.7581C15.5605 16.7791 15.5673 16.8001 15.5811 16.8176C15.7224 17.0313 15.9291 17.1784 16.1324 17.322C16.3426 17.4657 16.5803 17.5672 16.8181 17.6548C17.0455 17.7354 17.2832 17.8054 17.521 17.844C18.0895 17.9315 18.6649 17.9876 19.2403 17.9105C19.6056 17.8615 19.9742 17.8335 20.3222 17.6933C20.498 17.6233 20.684 17.5742 20.8529 17.4937C21.0079 17.4166 21.1526 17.315 21.2973 17.2169C21.3938 17.1504 21.4903 17.0768 21.5764 16.9963C21.6453 16.9332 21.697 16.8491 21.7556 16.7756C21.7625 16.7721 21.7694 16.7756 21.7763 16.7756Z" fill="#1C8DFF" fill-opacity="0.6"/>
<path d="M21.7831 13.5739C21.8072 13.7525 21.8348 13.9277 21.8072 14.1098C21.7487 14.5267 21.4868 14.8034 21.187 15.0521C20.9768 15.2238 20.7322 15.3464 20.4841 15.4515C20.3187 15.5215 20.143 15.5811 19.9707 15.6231C19.2885 15.7878 18.5994 15.8543 17.9034 15.7317C17.5692 15.6722 17.2349 15.6161 16.9145 15.483C16.7974 15.434 16.6768 15.3884 16.5665 15.3219C16.439 15.2518 16.3081 15.1853 16.1875 15.1047C16.091 15.0381 16.0014 14.9576 15.9187 14.8735C15.8395 14.7964 15.7671 14.7159 15.7051 14.6248C15.488 14.3095 15.3985 13.9662 15.5259 13.5879C15.5259 13.5844 15.5328 13.5809 15.5432 13.5704C15.5604 13.5809 15.5776 13.5914 15.5914 13.6089C15.6396 13.6615 15.6879 13.7175 15.7327 13.7736C15.8912 13.9732 16.1048 14.0958 16.315 14.2184C16.4941 14.32 16.694 14.3831 16.8904 14.4531C17.0523 14.5127 17.2177 14.5722 17.3831 14.6038C18.1308 14.7509 18.8819 14.7894 19.64 14.6493C19.9294 14.5968 20.205 14.5162 20.4876 14.4426C20.5565 14.4251 20.6185 14.3936 20.684 14.3586C20.8321 14.2815 20.9768 14.1974 21.1284 14.1204C21.3042 14.0293 21.4523 13.8997 21.5936 13.7596C21.6315 13.721 21.666 13.6755 21.7004 13.6334C21.7211 13.6054 21.7383 13.5774 21.7555 13.5494C21.759 13.5564 21.7728 13.5669 21.7831 13.5739Z" fill="#1C8DFF" fill-opacity="0.6"/>
<path d="M14.0994 13.5704C14.1683 13.7455 14.1821 13.9067 14.158 14.0713C14.1132 14.355 13.9891 14.5967 13.7927 14.8104C13.6204 14.9961 13.424 15.1397 13.2139 15.2623C12.9279 15.4305 12.6143 15.5531 12.2939 15.6301C11.7771 15.7527 11.2533 15.8193 10.7193 15.7878C10.4161 15.7702 10.1232 15.7142 9.82687 15.6546C9.62702 15.6161 9.44096 15.5531 9.2549 15.4795C9.13086 15.4269 9.00682 15.3744 8.88967 15.3149C8.7484 15.2413 8.60713 15.1677 8.47965 15.0731C8.35561 14.9821 8.23157 14.877 8.13509 14.7579C7.88012 14.4426 7.73885 14.0853 7.84222 13.6685C7.84911 13.6369 7.86289 13.6054 7.87667 13.5599C8.02139 13.7665 8.19711 13.9207 8.38662 14.0538C8.50377 14.1344 8.63125 14.2044 8.75874 14.271C8.86555 14.327 8.97236 14.3866 9.08607 14.4181C9.34104 14.4917 9.58568 14.6038 9.85788 14.6248C10.0439 14.6423 10.2266 14.6878 10.4126 14.7123C10.926 14.7719 11.4394 14.7474 11.9493 14.6528C12.1182 14.6213 12.2905 14.6038 12.4524 14.5547C12.697 14.4847 12.9382 14.4076 13.1691 14.292C13.4137 14.1694 13.648 14.0293 13.8513 13.8436C13.9168 13.7841 13.9719 13.7105 14.0339 13.6439C14.0511 13.6194 14.0718 13.5984 14.0994 13.5704Z" fill="#1C8DFF" fill-opacity="0.6"/>
<path d="M15.5259 11.9695C15.6603 12.0992 15.7878 12.2323 15.9221 12.3514C16.0117 12.4319 16.1185 12.495 16.2185 12.565C16.2598 12.5931 16.308 12.6176 16.3563 12.6351C16.563 12.7227 16.7629 12.8383 16.9765 12.8908C17.2866 12.9679 17.5932 13.066 17.9206 13.087C18.2444 13.1045 18.5649 13.136 18.8888 13.1185C19.3126 13.094 19.7329 13.0695 20.1464 12.9364C20.3187 12.8803 20.4875 12.8243 20.6598 12.7612C20.9079 12.6666 21.1318 12.537 21.3455 12.3794C21.4557 12.2988 21.5384 12.1867 21.6383 12.0921C21.6831 12.0501 21.7383 12.0186 21.7899 11.9836C21.8003 12.0921 21.8175 12.2218 21.8175 12.3549C21.8175 12.5685 21.7658 12.7612 21.6487 12.9469C21.566 13.0765 21.4695 13.1886 21.3627 13.2902C21.2731 13.3777 21.1801 13.4618 21.0767 13.5284C20.9389 13.6159 20.7873 13.686 20.6426 13.7631C20.6116 13.7806 20.584 13.7981 20.553 13.8121C20.2704 13.9417 19.9707 14.0398 19.6675 14.0888C19.1093 14.1799 18.5442 14.2219 17.9757 14.1379C17.6759 14.0923 17.3727 14.0503 17.0902 13.9382C16.9076 13.8646 16.7181 13.8121 16.5458 13.721C16.3184 13.6019 16.091 13.4793 15.9187 13.2726C15.8188 13.1535 15.6947 13.0449 15.6224 12.9083C15.4639 12.6106 15.395 12.2953 15.5259 11.9695Z" fill="#1C8DFF" fill-opacity="0.6"/>
<path d="M21.776 10.3267C21.807 10.5158 21.8276 10.684 21.8139 10.8556C21.7966 11.1043 21.6864 11.311 21.5382 11.4966C21.3969 11.6788 21.2247 11.8329 21.0248 11.952C20.8767 12.0396 20.7354 12.1412 20.5769 12.2042C20.3529 12.2918 20.1186 12.3549 19.8878 12.4249C19.3641 12.5826 18.8265 12.6001 18.2856 12.5685C18.0237 12.5545 17.7619 12.4915 17.5034 12.4494C17.2071 12.4039 16.928 12.2953 16.6558 12.1727C16.5077 12.1062 16.3767 12.0081 16.232 11.9275C16.0563 11.8294 15.9254 11.6788 15.7807 11.5422C15.5085 11.2795 15.3775 10.726 15.5153 10.3722C15.5188 10.3652 15.5257 10.3582 15.5395 10.3442C15.5601 10.3757 15.5739 10.4037 15.5946 10.4282C15.6153 10.4598 15.6359 10.4878 15.6601 10.5158C15.6773 10.5333 15.7014 10.5438 15.7152 10.5649C15.8702 10.7575 16.0804 10.8836 16.2872 11.0062C16.518 11.1393 16.7695 11.2339 17.028 11.304C17.6206 11.4651 18.2236 11.5632 18.8403 11.5352C19.2124 11.5177 19.5777 11.4511 19.9464 11.381C20.1738 11.339 20.3839 11.2584 20.5941 11.1849C20.7802 11.1218 20.949 11.0062 21.1247 10.9117C21.297 10.8206 21.4486 10.698 21.5796 10.5544C21.6485 10.4878 21.7036 10.4142 21.776 10.3267Z" fill="#1C8DFF" fill-opacity="0.6"/>
<path d="M21.7832 15.1537C21.797 15.2869 21.8211 15.4165 21.8176 15.5461C21.8142 15.7633 21.7832 15.9734 21.6385 16.1521C21.5592 16.2537 21.5006 16.3728 21.4076 16.4603C21.2457 16.6145 21.0768 16.7616 20.8735 16.8562C20.684 16.9438 20.5014 17.0523 20.305 17.1154C20.0397 17.203 19.771 17.2835 19.4953 17.3256C19.037 17.3886 18.5788 17.3956 18.1136 17.3606C17.8139 17.3361 17.5279 17.2695 17.235 17.196C16.9421 17.1224 16.6768 16.9998 16.415 16.8562C16.1738 16.7231 15.9601 16.5584 15.7844 16.3483C15.5605 16.0785 15.4295 15.7738 15.4674 15.413C15.4778 15.3324 15.5019 15.2518 15.5226 15.1608C15.6053 15.2518 15.6742 15.3359 15.7534 15.4095C15.843 15.49 15.936 15.5706 16.0325 15.6372C16.1428 15.7142 16.2599 15.7878 16.3805 15.8473C16.5287 15.9209 16.6768 15.9945 16.8353 16.047C17.2419 16.1871 17.6588 16.2852 18.0826 16.3237C18.341 16.3483 18.5995 16.3272 18.8579 16.3342C19.2782 16.3448 19.6814 16.2572 20.0879 16.1626C20.2706 16.1206 20.4463 16.061 20.6151 15.9804C20.7323 15.9244 20.8494 15.8648 20.97 15.8123C21.1354 15.7457 21.2767 15.6442 21.411 15.5286C21.5385 15.4165 21.6488 15.2904 21.7832 15.1537Z" fill="#1C8DFF" fill-opacity="0.6"/>
<path d="M7.88007 15.1537C7.96277 15.2904 8.05924 15.3955 8.17639 15.4795C8.30388 15.5741 8.42447 15.6827 8.55885 15.7633C8.70357 15.8473 8.85862 15.9104 9.01022 15.9804C9.0688 16.0085 9.12737 16.033 9.18939 16.054C9.59597 16.1871 10.0129 16.2887 10.4401 16.3237C10.7054 16.3483 10.9742 16.3272 11.243 16.3307C11.6358 16.3377 12.0113 16.2572 12.3903 16.1661C12.5833 16.1206 12.7625 16.0505 12.9485 15.9839C13.2104 15.8894 13.4516 15.7563 13.6721 15.5916C13.8271 15.476 13.9546 15.3254 14.1097 15.1748C14.1269 15.2693 14.1614 15.3604 14.1614 15.455C14.1614 15.5846 14.1269 15.7142 14.1166 15.8438C14.1028 16.0155 13.9891 16.1381 13.9098 16.2747C13.8513 16.3693 13.7582 16.4428 13.6755 16.5164C13.5894 16.597 13.4998 16.6775 13.3999 16.7441C13.2827 16.8247 13.1621 16.8982 13.0347 16.9578C12.8658 17.0383 12.6935 17.1154 12.5109 17.1644C12.1147 17.2765 11.7116 17.3571 11.2981 17.3711C10.9122 17.3816 10.5297 17.3711 10.1473 17.3221C9.96465 17.3011 9.78548 17.2485 9.60975 17.196C9.41335 17.1399 9.21696 17.0804 9.0309 16.9963C8.86551 16.9227 8.7139 16.8212 8.5623 16.7231C8.46582 16.66 8.37279 16.5865 8.2901 16.5059C8.2074 16.4253 8.13505 16.3272 8.05924 16.2397C7.96621 16.1311 7.91453 16.005 7.86974 15.8719C7.7836 15.6337 7.78704 15.399 7.88007 15.1537Z" fill="#1C8DFF" fill-opacity="0.6"/>
<path d="M19.7257 7.87457C19.7188 8.4946 19.233 8.9745 18.6507 8.978C18.0856 8.98151 17.5791 8.52262 17.5757 7.87808C17.5757 7.25455 18.0684 6.78516 18.6473 6.78516C19.2365 6.78516 19.7154 7.26156 19.7257 7.87457ZM18.568 7.12845C18.4612 7.188 18.3509 7.22302 18.2855 7.29308C18.1856 7.40168 18.1408 7.5453 18.2062 7.69242C18.2682 7.83254 18.3751 7.9096 18.5232 7.94463C18.6162 7.96565 18.7127 8.00769 18.792 8.06373C18.8988 8.13729 18.8712 8.2599 18.7506 8.30894C18.6438 8.35097 18.5542 8.30894 18.4578 8.27041C18.4371 8.22137 18.4199 8.17232 18.3957 8.10577C18.3061 8.13029 18.22 8.15481 18.1132 8.18283C18.158 8.2599 18.189 8.32645 18.2303 8.386C18.3096 8.5051 18.444 8.51912 18.568 8.56465C18.5715 8.6172 18.5749 8.66974 18.5818 8.72229C18.6369 8.72229 18.6852 8.72229 18.7368 8.72229C18.7403 8.66624 18.7437 8.6172 18.7472 8.56115C18.7782 8.55064 18.8092 8.54013 18.8437 8.52963C18.9815 8.49109 19.0952 8.43154 19.1434 8.27741C19.2054 8.08475 19.1331 7.85706 18.9367 7.77999C18.8195 7.73446 18.7024 7.68892 18.5887 7.63637C18.4819 7.58733 18.4819 7.57682 18.5025 7.45422C18.5542 7.39467 18.6162 7.35964 18.6989 7.37365C18.8023 7.39117 18.854 7.46823 18.8988 7.55931C18.9746 7.52428 19.0469 7.49275 19.1262 7.46122C19.0745 7.25805 18.9126 7.20551 18.7541 7.14946C18.7506 7.10042 18.7472 7.05839 18.7437 7.01285C18.6886 7.01285 18.6369 7.01285 18.5887 7.01285C18.5715 7.06539 18.5715 7.10392 18.568 7.12845Z" fill="#1C8DFF" fill-opacity="0.6"/>
<path d="M4.3932 14.299C4.43799 14.891 3.88325 15.4024 3.32851 15.3919C2.71176 15.3814 2.2466 14.8945 2.25349 14.292C2.26038 13.7 2.71176 13.2166 3.32851 13.2061C3.91082 13.1956 4.44143 13.721 4.3932 14.299ZM3.41121 14.9681C3.63517 14.933 3.63517 14.9365 3.76266 14.7964C3.91082 14.6353 3.88325 14.3831 3.71442 14.271C3.59727 14.1904 3.456 14.1519 3.32162 14.0993C3.2596 14.0748 3.20447 14.0468 3.18035 13.9767C3.15968 13.9102 3.19069 13.8611 3.23204 13.8156C3.29406 13.7525 3.41121 13.7701 3.48701 13.8506C3.52147 13.8857 3.54903 13.9242 3.58004 13.9627C3.65584 13.9382 3.72475 13.9137 3.80056 13.8892C3.73165 13.6965 3.61105 13.5879 3.41465 13.5809C3.41121 13.5249 3.41121 13.4758 3.40776 13.4268C3.34574 13.4268 3.29406 13.4268 3.23204 13.4268C3.23204 13.4828 3.23204 13.5319 3.23204 13.5809C2.95639 13.6054 2.81857 13.8471 2.89437 14.0993C2.9116 14.1519 2.93572 14.2254 2.97706 14.2465C3.11833 14.3235 3.26994 14.3901 3.42154 14.4461C3.49046 14.4707 3.53869 14.5022 3.54558 14.5757C3.55248 14.6493 3.50768 14.6983 3.44911 14.7334C3.34919 14.7859 3.21136 14.7579 3.13901 14.6633C3.11144 14.6283 3.09077 14.5862 3.0632 14.5442C2.9874 14.5652 2.90815 14.5898 2.81168 14.6143C2.85647 14.6948 2.88748 14.7789 2.93916 14.8385C3.01497 14.9225 3.11489 14.9716 3.23204 14.9646C3.23548 15.0276 3.23893 15.0767 3.23893 15.1327C3.30095 15.1327 3.35263 15.1327 3.41121 15.1327C3.41121 15.0697 3.41121 15.0206 3.41121 14.9681Z" fill="#1C8DFF" fill-opacity="0.6"/>
<path d="M10.9916 9.99389C11.5704 9.97988 12.0632 10.4983 12.0666 11.0728C12.0735 11.6893 11.5773 12.1832 10.9881 12.1867C10.4196 12.1902 9.95791 11.7068 9.91311 11.1884C9.85454 10.4913 10.461 9.96237 10.9916 9.99389ZM10.6022 11.0133C10.6332 11.0343 10.6574 11.0553 10.6884 11.0693C10.778 11.1113 10.871 11.1534 10.964 11.1954C11.0191 11.2199 11.0777 11.2339 11.1328 11.262C11.1914 11.2935 11.2087 11.3495 11.1949 11.4126C11.1811 11.4756 11.1432 11.5177 11.0812 11.5352C10.9089 11.5772 10.7917 11.5107 10.7401 11.339C10.6539 11.353 10.5678 11.367 10.4747 11.3846C10.5333 11.6228 10.6815 11.7384 10.9089 11.7559C10.9158 11.8189 10.9192 11.8715 10.9227 11.9275C10.9778 11.9275 11.0295 11.9275 11.0812 11.9275C11.0846 11.868 11.0881 11.8119 11.0881 11.7629C11.1466 11.7489 11.1949 11.7314 11.2431 11.7243C11.4361 11.6893 11.5498 11.4196 11.4981 11.269C11.4705 11.1849 11.4223 11.0868 11.3534 11.0448C11.2224 10.9642 11.0674 10.9222 10.9227 10.8626C10.8227 10.8206 10.8021 10.712 10.8744 10.6349C10.9399 10.5649 11.0433 10.5579 11.1122 10.6244C11.1604 10.6665 11.1983 10.719 11.2431 10.7645C11.312 10.7365 11.3809 10.7085 11.4498 10.684C11.405 10.4878 11.2603 10.4107 11.0881 10.3652C11.0846 10.3162 11.0812 10.2706 11.0777 10.2216C11.0226 10.2216 10.9744 10.2216 10.9192 10.2216C10.9123 10.2741 10.9089 10.3197 10.9054 10.3617C10.5368 10.4668 10.4506 10.6559 10.6022 11.0133Z" fill="#1C8DFF" fill-opacity="0.6"/>
</g>
<defs>
<clipPath id="clip0_14_381">
<rect width="22" height="19" fill="white"/>
</clipPath>
</defs>
</svg>
