<svg width="17" height="17" viewBox="0 0 17 17" fill="none" xmlns="http://www.w3.org/2000/svg">
<path fill-rule="evenodd" clip-rule="evenodd" d="M11.6215 10.5536L15.239 14.3644C15.3661 14.4985 15.4375 14.6802 15.4375 14.8697C15.4374 15.0592 15.3659 15.2409 15.2387 15.3749C15.1114 15.5088 14.9389 15.584 14.759 15.584C14.5791 15.5839 14.4066 15.5086 14.2795 15.3745L10.662 11.5637C9.58062 12.446 8.22075 12.8613 6.85906 12.7249C5.49736 12.5885 4.23613 11.9108 3.33193 10.8296C2.42773 9.74836 1.94849 8.34489 1.9917 6.90466C2.03491 5.46443 2.59732 4.09563 3.56453 3.07672C4.53173 2.05782 5.83107 1.46534 7.19823 1.41982C8.56538 1.3743 9.89764 1.87916 10.924 2.83169C11.9503 3.78423 12.5937 5.11288 12.7231 6.54736C12.8526 7.98184 12.4584 9.4144 11.6208 10.5536H11.6215ZM7.36865 11.3335C8.43862 11.3335 9.46477 10.8857 10.2214 10.0887C10.9779 9.29165 11.403 8.21065 11.403 7.08348C11.403 5.95631 10.9779 4.8753 10.2214 4.07827C9.46477 3.28124 8.43862 2.83348 7.36865 2.83348C6.29867 2.83348 5.27252 3.28124 4.51593 4.07827C3.75934 4.8753 3.3343 5.95631 3.3343 7.08348C3.3343 8.21065 3.75934 9.29165 4.51593 10.0887C5.27252 10.8857 6.29867 11.3335 7.36865 11.3335Z" fill="#1C8DFF" fill-opacity="0.6"/>
</svg>
