<svg width="17" height="17" viewBox="0 0 17 17" fill="none" xmlns="http://www.w3.org/2000/svg">
<path fill-rule="evenodd" clip-rule="evenodd" d="M11.924 10.795L16.1831 15.0542C16.3328 15.204 16.4169 15.4071 16.4168 15.6189C16.4168 15.8307 16.3326 16.0338 16.1827 16.1835C16.0329 16.3332 15.8298 16.4172 15.618 16.4172C15.4062 16.4171 15.2031 16.3329 15.0534 16.1831L10.7943 11.9239C9.52104 12.9101 7.91995 13.3742 6.3167 13.2217C4.71346 13.0693 3.22849 12.3119 2.1639 11.1034C1.09931 9.89503 0.535054 8.32644 0.585927 6.71677C0.636801 5.1071 1.29898 3.57727 2.43776 2.43849C3.57653 1.29971 5.10637 0.637533 6.71604 0.58666C8.3257 0.535786 9.8943 1.10004 11.1027 2.16463C12.3111 3.22923 13.0686 4.71419 13.221 6.31744C13.3734 7.92068 12.9093 9.52177 11.9232 10.795H11.924ZM6.91669 11.6666C8.17646 11.6666 9.38465 11.1662 10.2754 10.2754C11.1662 9.38459 11.6667 8.1764 11.6667 6.91663C11.6667 5.65685 11.1662 4.44867 10.2754 3.55787C9.38465 2.66707 8.17646 2.16663 6.91669 2.16663C5.65691 2.16663 4.44873 2.66707 3.55793 3.55787C2.66713 4.44867 2.16669 5.65685 2.16669 6.91663C2.16669 8.1764 2.66713 9.38459 3.55793 10.2754C4.44873 11.1662 5.65691 11.6666 6.91669 11.6666Z" fill="white"/>
</svg>
