<svg width="20" height="23" viewBox="0 0 20 23" fill="none" xmlns="http://www.w3.org/2000/svg">
<path d="M10.0117 8.29331C9.31095 8.29331 8.6547 8.57359 8.15782 9.08583C7.66329 9.59807 7.38907 10.2746 7.38907 10.9971C7.38907 11.7195 7.66329 12.3961 8.15782 12.9083C8.6547 13.4181 9.31095 13.7008 10.0117 13.7008C10.7125 13.7008 11.3688 13.4181 11.8656 12.9083C12.3602 12.3961 12.6344 11.7195 12.6344 10.9971C12.6344 10.2746 12.3602 9.59807 11.8656 9.08583C11.6229 8.83371 11.3341 8.63382 11.0158 8.49777C10.6976 8.36172 10.3563 8.29222 10.0117 8.29331ZM19.675 13.9835L18.1422 12.6329C18.2149 12.1738 18.2524 11.705 18.2524 11.2387C18.2524 10.7724 18.2149 10.3012 18.1422 9.84453L19.675 8.49385C19.7908 8.39166 19.8737 8.25555 19.9126 8.10363C19.9515 7.9517 19.9447 7.79116 19.893 7.64334L19.8719 7.58052C19.45 6.3644 18.818 5.23714 18.0063 4.25336L17.9641 4.20262C17.8655 4.08314 17.7341 3.99725 17.5873 3.95628C17.4404 3.9153 17.285 3.92116 17.1414 3.97307L15.2383 4.67137C14.5352 4.07697 13.7524 3.60822 12.9039 3.28203L12.5359 1.23065C12.5082 1.07611 12.4355 0.933937 12.3275 0.82302C12.2195 0.712104 12.0813 0.637692 11.9313 0.609672L11.868 0.597591C10.6492 0.370465 9.36485 0.370465 8.1461 0.597591L8.08282 0.609672C7.93282 0.637692 7.79463 0.712104 7.68662 0.82302C7.57861 0.933937 7.5059 1.07611 7.47814 1.23065L7.10782 3.2917C6.26742 3.62049 5.48453 4.0881 4.78986 4.6762L2.87267 3.97307C2.72915 3.92074 2.57358 3.91468 2.42664 3.95568C2.2797 3.99668 2.14834 4.08281 2.05001 4.20262L2.00782 4.25336C1.19757 5.23819 0.565647 6.36517 0.142199 7.58052L0.121105 7.64334C0.0156363 7.94537 0.102355 8.28364 0.339074 8.49385L1.89064 9.85903C1.81798 10.3133 1.78282 10.7772 1.78282 11.2363C1.78282 11.7002 1.81798 12.1641 1.89064 12.6135L0.343761 13.9787C0.22797 14.0809 0.145097 14.217 0.106161 14.3689C0.0672258 14.5209 0.0740729 14.6814 0.125792 14.8292L0.146886 14.892C0.571105 16.1074 1.19689 17.231 2.01251 18.2192L2.0547 18.2699C2.15326 18.3894 2.28463 18.4753 2.43148 18.5163C2.57834 18.5573 2.73379 18.5514 2.87735 18.4995L4.79454 17.7964C5.49298 18.3883 6.2711 18.8571 7.11251 19.1809L7.48282 21.2419C7.51059 21.3965 7.5833 21.5386 7.69131 21.6495C7.79932 21.7605 7.9375 21.8349 8.08751 21.8629L8.15079 21.875C9.38153 22.1033 10.6419 22.1033 11.8727 21.875L11.9359 21.8629C12.086 21.8349 12.2241 21.7605 12.3322 21.6495C12.4402 21.5386 12.5129 21.3965 12.5406 21.2419L12.9086 19.1905C13.757 18.8619 14.5399 18.3956 15.243 17.8012L17.1461 18.4995C17.2896 18.5518 17.4452 18.5579 17.5921 18.5169C17.7391 18.4759 17.8704 18.3898 17.9688 18.2699L18.0109 18.2192C18.8266 17.2261 19.4524 16.1074 19.8766 14.892L19.8977 14.8292C19.9984 14.5296 19.9117 14.1938 19.675 13.9835ZM10.0117 15.2448C7.73595 15.2448 5.89142 13.3432 5.89142 10.9971C5.89142 8.65091 7.73595 6.74933 10.0117 6.74933C12.2875 6.74933 14.132 8.65091 14.132 10.9971C14.132 13.3432 12.2875 15.2448 10.0117 15.2448Z" fill="#1C8DFF" fill-opacity="0.6"/>
</svg>
