<svg width="20" height="18" viewBox="0 0 20 18" fill="none" xmlns="http://www.w3.org/2000/svg">
<path d="M4.74707 0.999979H8.21107C8.40109 1.00004 8.58401 1.07222 8.72286 1.20195C8.86171 1.33168 8.94615 1.50928 8.9591 1.69886C8.97205 1.88844 8.91256 2.07587 8.79264 2.22328C8.67272 2.37068 8.50132 2.46708 8.31307 2.49298L8.21107 2.49998H4.74707C4.17711 2.49989 3.62835 2.71612 3.21164 3.10498C2.79493 3.49385 2.54133 4.02637 2.50207 4.59498L2.49707 4.74998V14.25C2.49725 14.8199 2.71373 15.3686 3.10278 15.7851C3.49183 16.2016 4.02445 16.455 4.59307 16.494L4.74707 16.5H14.2471C14.8172 16.5 15.3661 16.2837 15.7828 15.8946C16.1996 15.5055 16.453 14.9728 16.4921 14.404L16.4971 14.25V13.752C16.4951 13.5606 16.5664 13.3757 16.6963 13.2352C16.8263 13.0947 17.005 13.0091 17.1959 12.9961C17.3869 12.9831 17.5756 13.0435 17.7234 13.1651C17.8712 13.2866 17.967 13.4601 17.9911 13.65L17.9971 13.752V14.25C17.9969 15.2098 17.6287 16.133 16.9683 16.8295C16.3079 17.526 15.4055 17.9428 14.4471 17.994L14.2471 18H4.74707C3.78691 18.0001 2.8633 17.6318 2.16656 16.9712C1.46981 16.3105 1.05302 15.4078 1.00207 14.449L0.99707 14.249V4.74898C0.99724 3.78915 1.36544 2.86593 2.02586 2.16943C2.68627 1.47293 3.58861 1.05617 4.54707 1.00498L4.74707 0.999979H8.21107H4.74707ZM12.5001 3.54398V0.749979C12.5 0.612024 12.538 0.476719 12.6098 0.358946C12.6816 0.241174 12.7846 0.145497 12.9073 0.0824416C13.03 0.0193858 13.1677 -0.00860595 13.3053 0.00154522C13.4428 0.0116964 13.575 0.0595972 13.6871 0.139979L13.7691 0.207979L19.7631 5.95798C20.0431 6.22698 20.0691 6.65798 19.8401 6.95598L19.7631 7.04098L13.7691 12.793C13.6695 12.8886 13.5455 12.9549 13.4108 12.9845C13.276 13.0142 13.1356 13.0061 13.0051 12.9611C12.8747 12.9161 12.7591 12.836 12.6713 12.7296C12.5834 12.6232 12.5266 12.4946 12.5071 12.358L12.5001 12.251V9.44998L12.1791 9.44298C9.52107 9.43498 7.24907 10.527 5.31407 12.745C4.81807 13.312 3.88907 12.876 4.00807 12.132C4.83507 6.99198 7.60807 4.08798 12.1981 3.57398L12.5001 3.54398V0.749979V3.54398Z" fill="#1C8DFF"/>
</svg>
