<svg width="20" height="11" viewBox="0 0 20 11" fill="none" xmlns="http://www.w3.org/2000/svg">
<path d="M15.4959 2.12321L10.625 6.99197L7.12539 3.49721C6.71035 3.08236 6.03965 3.08236 5.62461 3.49721L0.31118 8.80738C-0.103727 9.22223 -0.103727 9.89264 0.31118 10.3075C0.726152 10.723 1.39885 10.723 1.81389 10.3075L6.34512 5.75071L9.87461 9.24547C10.2896 9.66032 10.9604 9.66032 11.3754 9.24547L17 3.62665V6.40121C17 6.95878 17.4748 7.46324 18.0625 7.46324C18.6502 7.46324 19.125 6.95878 19.125 6.40121V1.06117C19.125 0.473737 18.6502 -0.000859261 18.0625 -0.000859261H12.75C12.1623 -0.000859261 11.6875 0.473737 11.6875 1.06117C11.6875 1.64861 12.1623 2.12321 12.75 2.12321H15.4959Z" fill="#2CBD96"/>
</svg>
