<svg width="20" height="11" viewBox="0 0 20 11" fill="none" xmlns="http://www.w3.org/2000/svg">
<path d="M15.4959 8.49593L10.625 3.62718L7.12539 7.12193C6.71035 7.53679 6.03965 7.53679 5.62461 7.12193L0.31118 1.81176C-0.103727 1.39691 -0.103727 0.726497 0.31118 0.31164C0.726152 -0.10388 1.39885 -0.10388 1.81389 0.31164L6.34512 4.86843L9.87461 1.37367C10.2896 0.958817 10.9604 0.958817 11.3754 1.37367L17 6.99249V4.21793C17 3.66036 17.4748 3.1559 18.0625 3.1559C18.6502 3.1559 19.125 3.66036 19.125 4.21793V9.55797C19.125 10.1454 18.6502 10.62 18.0625 10.62H12.75C12.1623 10.62 11.6875 10.1454 11.6875 9.55797C11.6875 8.97053 12.1623 8.49593 12.75 8.49593H15.4959Z" fill="#E96464"/>
</svg>
