<svg width="20" height="20" viewBox="0 0 20 20" fill="none" xmlns="http://www.w3.org/2000/svg">
<path fill-rule="evenodd" clip-rule="evenodd" d="M10 19C14.9705 19 19 14.9705 19 10C19 5.0295 14.9705 1 10 1C5.0295 1 1 5.0295 1 10C1 14.9705 5.0295 19 10 19ZM10 20C15.523 20 20 15.523 20 10C20 4.477 15.523 0 10 0C4.477 0 0 4.477 0 10C0 15.523 4.477 20 10 20Z" fill="#1C8DFF" fill-opacity="0.6"/>
<path d="M4 15.8149C4 15.2984 4.386 14.8619 4.9 14.8049C8.7575 14.3779 11.26 14.4164 15.109 14.8144C15.3012 14.8346 15.4834 14.9103 15.6333 15.0323C15.7831 15.1543 15.8942 15.3173 15.953 15.5014C16.0117 15.6856 16.0156 15.8828 15.9641 16.0691C15.9126 16.2554 15.808 16.4226 15.663 16.5504C11.1205 20.5099 8.5245 20.4554 4.32 16.5544C4.115 16.3644 4 16.0944 4 15.8154V15.8149Z" fill="#1C8DFF" fill-opacity="0.6"/>
<path d="M14 8C14 9.06087 13.5786 10.0783 12.8284 10.8284C12.0783 11.5786 11.0609 12 10 12C8.93913 12 7.92172 11.5786 7.17157 10.8284C6.42143 10.0783 6 9.06087 6 8C6 6.93913 6.42143 5.92172 7.17157 5.17157C7.92172 4.42143 8.93913 4 10 4C11.0609 4 12.0783 4.42143 12.8284 5.17157C13.5786 5.92172 14 6.93913 14 8Z" fill="#1C8DFF" fill-opacity="0.6"/>
</svg>
