<svg width="53" height="53" viewBox="0 0 53 53" fill="none" xmlns="http://www.w3.org/2000/svg">
<circle cx="26.5" cy="26.5" r="26.5" fill="url(#paint0_linear_28_529)" fill-opacity="0.8"/>
<path d="M43.375 33.5312C43.375 33.1583 43.2268 32.8006 42.9631 32.5369C42.6994 32.2732 42.3417 32.125 41.9688 32.125H33.5312C33.1583 32.125 32.8006 32.2732 32.5369 32.5369C32.2732 32.8006 32.125 33.1583 32.125 33.5312C32.125 33.9042 32.2732 34.2619 32.5369 34.5256C32.8006 34.7893 33.1583 34.9375 33.5312 34.9375H41.9688C42.3417 34.9375 42.6994 34.7893 42.9631 34.5256C43.2268 34.2619 43.375 33.9042 43.375 33.5312ZM43.375 25.0938C43.375 24.7208 43.2268 24.3631 42.9631 24.0994C42.6994 23.8357 42.3417 23.6875 41.9688 23.6875H22.2812C21.9083 23.6875 21.5506 23.8357 21.2869 24.0994C21.0232 24.3631 20.875 24.7208 20.875 25.0938C20.875 25.4667 21.0232 25.8244 21.2869 26.0881C21.5506 26.3518 21.9083 26.5 22.2812 26.5H41.9688C42.3417 26.5 42.6994 26.3518 42.9631 26.0881C43.2268 25.8244 43.375 25.4667 43.375 25.0938ZM43.375 16.6562C43.375 16.2833 43.2268 15.9256 42.9631 15.6619C42.6994 15.3982 42.3417 15.25 41.9688 15.25H11.0312C10.6583 15.25 10.3006 15.3982 10.0369 15.6619C9.77316 15.9256 9.625 16.2833 9.625 16.6562C9.625 17.0292 9.77316 17.3869 10.0369 17.6506C10.3006 17.9143 10.6583 18.0625 11.0312 18.0625H41.9688C42.3417 18.0625 42.6994 17.9143 42.9631 17.6506C43.2268 17.3869 43.375 17.0292 43.375 16.6562Z" fill="white"/>
<path d="M19 28.375L20.6839 33.5574H26.1329L21.7245 36.7603L23.4084 41.9426L19 38.7397L14.5916 41.9426L16.2755 36.7603L11.8671 33.5574H17.3161L19 28.375Z" fill="#FECD33"/>
<defs>
<linearGradient id="paint0_linear_28_529" x1="26.5" y1="0" x2="26.5" y2="53" gradientUnits="userSpaceOnUse">
<stop stop-color="#1C8DFF"/>
<stop offset="1" stop-color="#A3CFFB"/>
</linearGradient>
</defs>
</svg>
