<svg width="12" height="14" viewBox="0 0 12 14" fill="none" xmlns="http://www.w3.org/2000/svg">
<path d="M11.2176 12.8204C10.9475 13.0904 10.5813 13.2421 10.1994 13.2421C9.8175 13.2421 9.45125 13.0904 9.1812 12.8204L6 9.1844L2.8188 12.8192C2.68548 12.9547 2.52666 13.0625 2.35148 13.1363C2.17631 13.2101 1.98826 13.2485 1.79817 13.2493C1.60808 13.2501 1.41972 13.2132 1.24395 13.1408C1.06818 13.0684 0.908485 12.9619 0.774071 12.8275C0.639657 12.6931 0.533186 12.5334 0.460799 12.3576C0.388412 12.1819 0.351543 11.9935 0.352317 11.8034C0.353091 11.6133 0.391493 11.4253 0.465309 11.2501C0.539124 11.0749 0.646893 10.9161 0.782397 10.7828L4.092 7.0028L0.781197 3.2204C0.645693 3.08708 0.537924 2.92826 0.464109 2.75309C0.390293 2.57791 0.351891 2.38986 0.351117 2.19977C0.350343 2.00968 0.387213 1.82132 0.459599 1.64555C0.531986 1.46978 0.638457 1.31009 0.772871 1.17567C0.907285 1.04126 1.06698 0.934787 1.24275 0.862401C1.41852 0.790014 1.60688 0.753144 1.79697 0.753918C1.98706 0.754692 2.17511 0.793095 2.35028 0.86691C2.52546 0.940726 2.68428 1.04849 2.8176 1.184L6 4.8212L9.1812 1.184C9.31451 1.04849 9.47334 0.940726 9.64851 0.86691C9.82368 0.793095 10.0117 0.754692 10.2018 0.753918C10.3919 0.753144 10.5803 0.790014 10.756 0.862401C10.9318 0.934787 11.0915 1.04126 11.2259 1.17567C11.3603 1.31009 11.4668 1.46978 11.5392 1.64555C11.6116 1.82132 11.6485 2.00968 11.6477 2.19977C11.6469 2.38986 11.6085 2.57791 11.5347 2.75309C11.4609 2.92826 11.3531 3.08708 11.2176 3.2204L7.908 7.0028L11.2176 10.7828C11.3515 10.9165 11.4577 11.0754 11.5302 11.2502C11.6026 11.425 11.6399 11.6124 11.6399 11.8016C11.6399 11.9908 11.6026 12.1782 11.5302 12.353C11.4577 12.5278 11.3515 12.6867 11.2176 12.8204Z" fill="#E96464"/>
</svg>
