<svg width="24" height="26" viewBox="0 0 24 26" fill="none" xmlns="http://www.w3.org/2000/svg">
<path d="M12 23.4433C11.4694 23.4406 10.9612 23.2228 10.5851 22.837C10.209 22.4512 9.99525 21.9284 9.99 21.3814H13.99C13.9921 21.657 13.9411 21.9304 13.84 22.1855C13.7107 22.4915 13.5127 22.7613 13.2623 22.9728C13.0119 23.1843 12.7164 23.3314 12.4 23.402H12.353C12.2368 23.427 12.1186 23.4408 12 23.4433ZM20 20.3505H4V18.2886L6 17.2577V11.5876C5.94732 10.1331 6.26594 8.68979 6.924 7.40203C7.24784 6.81158 7.68943 6.29863 8.21965 5.89702C8.74987 5.49541 9.35666 5.21427 10 5.07213V2.82471H14V5.07213C16.579 5.70512 18 8.01852 18 11.5876V17.2577L20 18.2886V20.3505Z" fill="#1C8DFF" fill-opacity="0.6"/>
</svg>
