<svg width="47" height="47" viewBox="0 0 47 47" fill="none" xmlns="http://www.w3.org/2000/svg">
<g clip-path="url(#clip0_1_17572)">
<path d="M26.6449 20.2466L13.4341 7.00086C13.4341 7.00086 20.3321 1.93541 30.1555 5.2507C35.5291 7.06254 39.7325 11.7039 41.6418 16.9776C43.5972 22.3977 43.0199 28.9589 39.7479 33.7622L42.7889 36.8076C42.7658 36.7845 43.8898 34.8955 43.9514 34.7799C44.9214 33.13 45.6528 31.2487 46.1763 29.3675C47.8238 23.4462 46.9769 17.1934 43.9437 11.9044C41.0721 6.89292 36.4375 2.99938 30.9099 1.20296C29.2778 0.670971 27.5918 0.324022 25.8904 0.138983C25.8904 0.138983 17.576 -1.164 9.93893 4.29466L8.4685 5.42032C8.29913 5.55909 12.3871 10.054 12.7489 10.4472C14.6505 12.5135 16.6983 14.4487 18.6769 16.4456C20.8171 18.5967 22.9496 20.7555 25.0898 22.9065C25.7904 23.6159 26.4832 24.4794 27.2839 25.0653C27.7997 25.4431 28.3309 25.5279 28.8929 25.2195C29.3779 24.9497 29.8398 24.41 29.7321 23.8163C29.5627 22.8449 29.7167 15.0655 29.7167 15.0655C29.7167 15.0655 29.632 13.4541 28.0384 13.616C28.0384 13.616 26.7912 13.6237 26.6603 14.9576L26.6449 20.2466Z" fill="#1C8DFF" fill-opacity="0.6"/>
<path d="M20.3859 26.7847L33.7199 39.8993C33.7199 39.8993 26.8759 45.0342 17.014 41.8114C11.6249 40.0458 7.3753 35.4507 5.41986 30.2002C3.41052 24.8032 3.92633 18.2343 7.15204 13.3924C7.15204 13.3924 4.0803 10.3778 4.0803 10.3701C4.1034 10.3932 3.00249 12.2899 2.93321 12.4056C1.98628 14.0632 1.27031 15.9598 0.769898 17.8411C-0.816015 23.7778 0.0924209 30.0228 3.17186 35.281C6.09733 40.2694 10.7627 44.1167 16.3057 45.8668C17.9378 46.3834 19.6315 46.7149 21.3329 46.8846C21.3329 46.8846 29.6551 48.1027 37.2382 42.5747L38.7009 41.4336C38.8703 41.2948 34.7362 36.8385 34.3743 36.4452C32.4574 34.3944 30.3864 32.4823 28.3925 30.5086C26.2369 28.3729 24.0736 26.245 21.918 24.1093C21.2097 23.4077 20.5091 22.5519 19.7008 21.9659C19.185 21.5958 18.6461 21.511 18.0918 21.8271C17.6068 22.097 17.1525 22.6521 17.2603 23.2381C17.4374 24.2095 17.3604 31.9889 17.3604 31.9889C17.3604 31.9889 17.4605 33.6003 19.0541 33.4229C19.0541 33.4229 20.3013 33.3998 20.4167 32.066L20.3859 26.7847Z" fill="#1C8DFF" fill-opacity="0.6"/>
</g>
<defs>
<clipPath id="clip0_1_17572">
<rect width="47" height="47" fill="white"/>
</clipPath>
</defs>
</svg>
