<svg width="52" height="52" viewBox="0 0 52 52" fill="none" xmlns="http://www.w3.org/2000/svg">
<path d="M33.9147 18.6595L32.8158 40.7425C32.8029 40.9986 32.6922 41.24 32.5065 41.4168C32.3207 41.5936 32.0742 41.6923 31.8177 41.6925H31.7677C31.6364 41.6861 31.5076 41.6538 31.3887 41.5976C31.2698 41.5413 31.1631 41.4621 31.0749 41.3646C30.9867 41.2671 30.9185 41.1531 30.8744 41.0292C30.8303 40.9052 30.811 40.7738 30.8177 40.6425L31.9118 18.6595H26.9958V40.6925C26.9958 40.9577 26.8904 41.2121 26.7029 41.3996C26.5153 41.5871 26.261 41.6925 25.9958 41.6925C25.7305 41.6925 25.4762 41.5871 25.2886 41.3996C25.1011 41.2121 24.9957 40.9577 24.9957 40.6925V18.6595H20.0787L21.1727 40.6425C21.1795 40.7738 21.1602 40.9052 21.1161 41.0292C21.072 41.1531 21.0038 41.2671 20.9156 41.3646C20.8274 41.4621 20.7207 41.5413 20.6018 41.5976C20.4829 41.6538 20.3541 41.6861 20.2228 41.6925H20.1727C19.9163 41.6923 19.6698 41.5936 19.484 41.4168C19.2983 41.24 19.1876 40.9986 19.1748 40.7425L18.0767 18.6595H9.85375C9.76675 18.6595 9.68075 18.6495 9.59375 18.6465L12.1537 46.0495C12.2497 47.1305 12.7478 48.1362 13.5496 48.8676C14.3514 49.5991 15.3985 50.003 16.4838 49.9995H35.5037C37.7637 49.9995 39.6237 48.2995 39.8337 46.0495L42.3937 18.6465C42.3097 18.6505 42.2277 18.6595 42.1437 18.6595H33.9147Z" fill="#265E91"/>
<path d="M42.1433 8.85H34.6233V6.63C34.6233 4.07 32.5533 2 29.9933 2H21.9933C19.4433 2 17.3633 4.07 17.3633 6.63V8.85H9.85328C7.92328 8.85 6.36328 10.41 6.36328 12.34V13.17C6.36328 15.09 7.92328 16.66 9.85328 16.66H42.1433C43.0681 16.6574 43.9542 16.2888 44.6082 15.6349C45.2621 14.981 45.6306 14.0948 45.6333 13.17V12.34C45.6333 10.41 44.0633 8.85 42.1433 8.85ZM32.6233 8.85H19.3633V6.63C19.3633 5.18 20.5433 4 21.9933 4H29.9933C31.4433 4 32.6233 5.18 32.6233 6.63V8.85Z" fill="#265E91"/>
</svg>
