<svg width="218" height="138" viewBox="0 0 218 138" fill="none" xmlns="http://www.w3.org/2000/svg">
<path d="M3.7339 117.792L10.3884 110.327M3.32898 110.732L10.7934 117.387" stroke="#2F6291" stroke-width="1.5" stroke-linecap="round"/>
<path d="M37.0625 136.059L149 136.002" stroke="#2F6291" stroke-width="2" stroke-linecap="round"/>
<path d="M12.0625 129.059H49.0625" stroke="#2F6291" stroke-width="2" stroke-linecap="round"/>
<path d="M2.0625 136.059L32.0625 136.059" stroke="#2F6291" stroke-width="2" stroke-linecap="round"/>
<path d="M163.062 129.059H206.062" stroke="#2F6291" stroke-width="2" stroke-linecap="round"/>
<path d="M173.062 136.059H216.062" stroke="#2F6291" stroke-width="2" stroke-linecap="round"/>
<path d="M158.062 136.059H168.063" stroke="#2F6291" stroke-width="2" stroke-linecap="round"/>
<path d="M151.845 14.8086H67.1553C64.8604 14.8086 63 17.2238 63 20.203V128.605C63 131.584 64.8604 134 67.1553 134H151.845C154.14 134 156 131.584 156 128.605V20.203C156 17.2238 154.14 14.8086 151.845 14.8086Z" fill="#265E91" stroke="#265E91" stroke-width="3.45928"/>
<path d="M164.771 61.8335C167.106 61.8335 168.999 59.9689 168.999 57.6687C168.999 55.3686 167.106 53.5039 164.771 53.5039C162.436 53.5039 160.543 55.3686 160.543 57.6687C160.543 59.9689 162.436 61.8335 164.771 61.8335Z" stroke="#265E91" stroke-width="3.07492"/>
<path d="M55.228 20.1831C57.5631 20.1831 59.456 18.3185 59.456 16.0183C59.456 13.7182 57.5631 11.8535 55.228 11.8535C52.8929 11.8535 51 13.7182 51 16.0183C51 18.3185 52.8929 20.1831 55.228 20.1831Z" fill="#265E91" stroke="#265E91" stroke-width="3.07492"/>
<path d="M126.336 10.5566V22.2938" stroke="#265E91" stroke-width="3.07492" stroke-linecap="round"/>
<path d="M91.057 63.3457L82.6172 71.472" stroke="#121212" stroke-width="3.07492" stroke-linecap="round"/>
<path d="M90.6719 71.2967L82.9844 63.3457" stroke="#121212" stroke-width="3.07492" stroke-linecap="round"/>
<path d="M137.545 63.3457L129.105 71.472" stroke="#121212" stroke-width="3.07492" stroke-linecap="round"/>
<path d="M137.16 71.2967L129.473 63.3457" stroke="#121212" stroke-width="3.07492" stroke-linecap="round"/>
<path d="M130.949 30.0273V41.7645" stroke="#265E91" stroke-width="3.07492" stroke-linecap="round"/>
<path d="M135.562 2.22852V21.1594" stroke="#265E91" stroke-width="3.07492" stroke-linecap="round"/>
<path d="M140.559 10.5566V29.4876" stroke="#265E91" stroke-width="3.07492" stroke-linecap="round"/>
<path d="M109.41 92.5119L114.177 88.2842C114.652 87.8628 115.38 87.895 115.805 88.3565L118.923 91.7456C119.348 92.2067 120.076 92.2389 120.551 91.8175L125.318 87.5898" stroke="#121212" stroke-width="3.07492" stroke-linecap="round" stroke-linejoin="round"/>
<path d="M93.0273 87.4941L98.3689 92.2628" stroke="#121212" stroke-width="3.07492" stroke-linecap="round" stroke-linejoin="round"/>
<path d="M98.9375 91.6897L103.182 88.1276C103.623 87.7585 104.273 87.7687 104.703 88.1515L109.199 92.1497" stroke="#121212" stroke-width="3.07492" stroke-linecap="round" stroke-linejoin="round"/>
</svg>
