<svg width="48" height="41" viewBox="0 0 48 41" fill="none" xmlns="http://www.w3.org/2000/svg">
<g clip-path="url(#clip0_1_17578)">
<path d="M10.107 0C4.52483 0 0 4.42428 0 9.88238C0 15.3405 4.52483 19.7648 10.107 19.7648C15.6891 19.7648 20.214 15.3405 20.214 9.88238C20.214 4.42428 15.6891 0 10.107 0ZM10.107 17.7998C5.6347 17.7998 2.01614 14.2553 2.01614 9.8888C2.01614 5.52232 5.6347 1.97134 10.107 1.97134C14.5793 1.97134 18.1978 5.5159 18.1978 9.88238C18.1978 14.2489 14.5793 17.7998 10.107 17.7998Z" fill="#1C8DFF" fill-opacity="0.6"/>
<path d="M10.107 16.8882C14.0641 16.8882 17.2719 13.7517 17.2719 9.88259C17.2719 6.01348 14.0641 2.87695 10.107 2.87695C6.14996 2.87695 2.94214 6.01348 2.94214 9.88259C2.94214 13.7517 6.14996 16.8882 10.107 16.8882Z" fill="#1C8DFF" fill-opacity="0.6"/>
<path d="M8.196 7.45513H7.36853V6.68458H8.91183V5.40674H9.77214V6.691H10.291V5.40674H11.1184V6.69742H12.1035C12.1035 6.69742 13.4038 6.90932 13.417 8.14863C13.417 8.14863 13.5023 9.49711 11.959 9.6769C11.959 9.6769 13.7913 9.70259 13.6862 11.6097C13.6862 11.6097 13.5483 12.9389 12.1166 13.093H11.125V14.3709H10.291V13.0995H9.78528V14.3709H8.91183V13.0995H7.33569V12.284L8.20914 12.2904L8.196 7.45513Z" fill="#1D1D1D"/>
<path d="M11.1118 9.34305H9.73926V7.61572H11.0133C11.5124 7.61572 11.913 8.00742 11.913 8.49544V8.55965C11.913 8.9963 11.5584 9.34305 11.1118 9.34305Z" fill="#1C8DFF" fill-opacity="0.6"/>
<path d="M11.1118 11.9886H9.73926V10.2612H11.0133C11.5124 10.2612 11.913 10.6529 11.913 11.1409V11.2052C11.913 11.6418 11.5584 11.9886 11.1118 11.9886Z" fill="#1C8DFF" fill-opacity="0.6"/>
<path d="M37.8931 0C32.311 0 27.7861 4.42428 27.7861 9.88238C27.7861 15.3405 32.311 19.7648 37.8931 19.7648C43.4753 19.7648 48.0001 15.3405 48.0001 9.88238C48.0001 4.42428 43.4753 0 37.8931 0ZM37.8931 17.7998C33.4208 17.7998 29.8023 14.2553 29.8023 9.8888C29.8023 5.52232 33.4208 1.97134 37.8931 1.97134C42.3654 1.97134 45.984 5.5159 45.984 9.88238C45.984 14.2489 42.3589 17.7998 37.8931 17.7998Z" fill="#1C8DFF" fill-opacity="0.6"/>
<path d="M37.8931 16.8882C41.8502 16.8882 45.058 13.7517 45.058 9.88259C45.058 6.01348 41.8502 2.87695 37.8931 2.87695C33.9361 2.87695 30.7283 6.01348 30.7283 9.88259C30.7283 13.7517 33.9361 16.8882 37.8931 16.8882Z" fill="#1C8DFF" fill-opacity="0.6"/>
<path d="M39.5809 8.22554L40.1654 7.22382C40.1654 7.22382 39.3905 6.48537 38.4579 6.45326V5.41943H37.4335V6.48537C37.4335 6.48537 35.5552 6.69727 35.6537 8.56587C35.6537 8.56587 35.7194 9.55475 36.9343 10.0749C37.486 10.3125 38.806 10.64 38.9768 11.2821C39.1803 12.0655 38.1164 12.271 37.5582 12.1618C37.0394 12.0591 36.56 11.7958 36.1922 11.4234C35.9558 11.7316 35.7194 12.0334 35.4764 12.3416C35.4239 12.4122 36.2908 12.958 36.3893 13.003C36.7242 13.1699 37.0788 13.2663 37.4466 13.3305C37.4335 13.6708 37.4466 14.0176 37.4466 14.3579H38.4645L38.4579 13.3305C38.4579 13.3305 40.0341 13.1828 40.2902 11.5582C40.2902 11.5582 40.5398 10.1648 38.7797 9.57402L37.8669 9.208C37.4203 9.06673 36.8161 8.68145 36.9869 8.14207C37.1314 7.67973 37.7421 7.54488 38.1756 7.57699C38.4054 7.59625 38.6221 7.66047 38.8323 7.75679C38.9111 7.78247 39.6138 8.16775 39.5809 8.22554Z" fill="#1D1D1D"/>
<path d="M2.51532 17.1641C2.51532 17.1641 1.56307 17.2475 1.70755 18.1786C1.70755 18.1786 2.48905 21.5113 4.91893 22.5258L14.8683 22.6928C14.8683 22.6928 17.4361 21.6526 18.4737 18.1273C18.4737 18.1273 18.8087 17.1641 17.7776 17.1641H2.51532Z" fill="#1C60A5"/>
<path d="M30.3012 17.1641C30.3012 17.1641 29.349 17.2475 29.4934 18.1786C29.4934 18.1786 30.2749 21.5113 32.7048 22.5258L42.6542 22.6928C42.6542 22.6928 45.222 21.6526 46.2596 18.1273C46.2596 18.1273 46.5945 17.1641 45.5635 17.1641H30.3012Z" fill="#1C60A5"/>
<path d="M10.1069 22.6864V24.0541C10.1069 24.0541 10.6586 25.9933 12.3792 26.3979H35.2267C35.2267 26.3979 37.2034 26.186 37.893 23.977V22.6157" stroke="#1C8DFF" stroke-opacity="0.6" stroke-width="3" stroke-miterlimit="10"/>
<path d="M20.7 28.2218L17.6594 36.6786H15.3149C15.3149 36.6786 13.3447 36.8456 13.0098 38.727V41.0001H14.4611V38.7655C14.4611 38.7655 14.599 38.0656 15.6038 38.0656L32.3306 38.1876C32.3306 38.1876 33.2172 38.1876 33.2369 38.9646V40.9937H34.767V39.0095C34.767 39.0095 34.3467 36.9162 32.7969 36.7171L30.1109 36.8391L26.801 28.2153H20.7V28.2218Z" fill="#1C8DFF" fill-opacity="0.6"/>
<path d="M21.7311 29.082L19.2158 36.7619H28.6004L25.6714 29.082H21.7311Z" fill="#1D1D1D"/>
<path d="M23.7538 29.6279C25.93 29.6279 27.6942 27.903 27.6942 25.7751C27.6942 23.6473 25.93 21.9224 23.7538 21.9224C21.5776 21.9224 19.8135 23.6473 19.8135 25.7751C19.8135 27.903 21.5776 29.6279 23.7538 29.6279Z" fill="#1C60A5"/>
<path d="M23.7539 28.5875C25.3425 28.5875 26.6303 27.3282 26.6303 25.7749C26.6303 24.2216 25.3425 22.9624 23.7539 22.9624C22.1653 22.9624 20.8774 24.2216 20.8774 25.7749C20.8774 27.3282 22.1653 28.5875 23.7539 28.5875Z" fill="#1D1D1D"/>
</g>
<defs>
<clipPath id="clip0_1_17578">
<rect width="48" height="41" fill="white"/>
</clipPath>
</defs>
</svg>
