<svg width="16" height="17" viewBox="0 0 16 17" fill="none" xmlns="http://www.w3.org/2000/svg">
<g id="fe:search">
<path id="Vector" fill-rule="evenodd" clip-rule="evenodd" d="M10.9008 10.5536L14.3703 14.3644C14.4922 14.4985 14.5607 14.6802 14.5606 14.8697C14.5606 15.0592 14.492 15.2409 14.37 15.3749C14.2479 15.5088 14.0824 15.584 13.9099 15.584C13.7374 15.5839 13.572 15.5086 13.45 15.3745L9.98055 11.5637C8.94339 12.446 7.63916 12.8613 6.33317 12.7249C5.02718 12.5885 3.81754 11.9108 2.95033 10.8296C2.08313 9.74836 1.62349 8.34489 1.66493 6.90466C1.70637 5.46443 2.24578 4.09563 3.17341 3.07672C4.10105 2.05782 5.34724 1.46534 6.65846 1.41982C7.96968 1.3743 9.24744 1.87916 10.2318 2.83169C11.2162 3.78423 11.8332 5.11288 11.9573 6.54736C12.0815 7.98184 11.7035 9.4144 10.9002 10.5536H10.9008ZM6.82191 11.3335C7.84811 11.3335 8.83229 10.8857 9.55792 10.0887C10.2836 9.29165 10.6912 8.21065 10.6912 7.08348C10.6912 5.95631 10.2836 4.8753 9.55792 4.07827C8.83229 3.28124 7.84811 2.83348 6.82191 2.83348C5.7957 2.83348 4.81153 3.28124 4.0859 4.07827C3.36026 4.8753 2.9526 5.95631 2.9526 7.08348C2.9526 8.21065 3.36026 9.29165 4.0859 10.0887C4.81153 10.8857 5.7957 11.3335 6.82191 11.3335Z" fill="#1C8DFF"/>
</g>
</svg>
