<svg width="8" height="5" viewBox="0 0 8 5" fill="none" xmlns="http://www.w3.org/2000/svg">
<path d="M6.48194 3.99997L4.44444 1.70771L2.98056 3.35307C2.80694 3.54839 2.52639 3.54839 2.35278 3.35307L0.130167 0.852995C-0.0433889 0.657677 -0.0433889 0.342042 0.130167 0.146723C0.30375 -0.0489078 0.585139 -0.0489078 0.75875 0.146723L2.65417 2.2921L4.13056 0.646739C4.30417 0.45142 4.58472 0.45142 4.75833 0.646739L7.11111 3.29213V1.98584C7.11111 1.72334 7.30972 1.48583 7.55556 1.48583C7.80139 1.48583 8 1.72334 8 1.98584V4.49998C8 4.77656 7.80139 5 7.55556 5H5.33333C5.0875 5 4.88889 4.77656 4.88889 4.49998C4.88889 4.22341 5.0875 3.99997 5.33333 3.99997H6.48194Z" fill="#E96464"/>
</svg>
