<svg width="8" height="5" viewBox="0 0 8 5" fill="none" xmlns="http://www.w3.org/2000/svg">
<path d="M6.48194 1.00003L4.44444 3.29229L2.98056 1.64693C2.80694 1.45161 2.52639 1.45161 2.35278 1.64693L0.130167 4.147C-0.0433889 4.34232 -0.0433889 4.65796 0.130167 4.85328C0.30375 5.04891 0.585139 5.04891 0.75875 4.85328L2.65417 2.7079L4.13056 4.35326C4.30417 4.54858 4.58472 4.54858 4.75833 4.35326L7.11111 1.70787V3.01416C7.11111 3.27666 7.30972 3.51417 7.55556 3.51417C7.80139 3.51417 8 3.27666 8 3.01416V0.500016C8 0.223445 7.80139 4.76837e-07 7.55556 4.76837e-07H5.33333C5.0875 4.76837e-07 4.88889 0.223445 4.88889 0.500016C4.88889 0.776587 5.0875 1.00003 5.33333 1.00003H6.48194Z" fill="#2CBD96"/>
</svg>
