<svg width="40" height="40" viewBox="0 0 40 40" fill="none" xmlns="http://www.w3.org/2000/svg">
<g clip-path="url(#clip0_1_17603)">
<path d="M8.11914 39.6396C8.11914 39.6396 9.82291 38.1773 9.64061 35.6834V1.1656H38.0157C38.0157 1.1656 39.6985 1.09496 39.6564 2.53614V36.623C39.6564 36.623 39.5652 39.1734 36.5363 39.6467H8.11914V39.6396Z" fill="#1D1D1D" stroke="#1C8DFF" stroke-opacity="0.6" stroke-miterlimit="10"/>
<path d="M7.06047 40.0002H5.12533C2.29273 40.0002 0 37.683 0 34.8289V24.2955C0 22.7695 1.22699 21.5332 2.74145 21.5332H9.98422V37.0542C9.98422 38.6791 8.6801 40.0002 7.06047 40.0002Z" fill="#1C8DFF" fill-opacity="0.6"/>
<path d="M34.1594 14.094H17.8579V4.58496H34.0893C35.3373 4.58496 36.347 5.60227 36.347 6.85978V11.8898C36.3399 13.1049 35.3654 14.094 34.1594 14.094Z" fill="#1C8DFF" fill-opacity="0.6"/>
<path d="M35.6669 19.576H18.9587C18.5731 19.576 18.2576 19.2581 18.2576 18.8696C18.2576 18.481 18.5731 18.1631 18.9587 18.1631H35.6669C36.0525 18.1631 36.368 18.481 36.368 18.8696C36.368 19.2581 36.0525 19.576 35.6669 19.576Z" fill="#1C8DFF" fill-opacity="0.6"/>
<path d="M35.6669 23.8714H13.8264C13.4408 23.8714 13.1252 23.5535 13.1252 23.165C13.1252 22.7764 13.4408 22.4585 13.8264 22.4585H35.6669C36.0525 22.4585 36.368 22.7764 36.368 23.165C36.368 23.5535 36.0525 23.8714 35.6669 23.8714Z" fill="#1C8DFF" fill-opacity="0.6"/>
<path d="M22.6328 28.9225H13.5881C13.3357 28.9225 13.1323 28.7176 13.1323 28.4633V27.9758C13.1323 27.7215 13.3357 27.5166 13.5881 27.5166H22.6328C22.8852 27.5166 23.0885 27.7215 23.0885 27.9758V28.4633C23.0955 28.7105 22.8852 28.9225 22.6328 28.9225Z" fill="#1C8DFF" fill-opacity="0.6"/>
<path d="M22.6328 32.5187H13.5881C13.3357 32.5187 13.1323 32.3138 13.1323 32.0595V31.572C13.1323 31.3177 13.3357 31.1128 13.5881 31.1128H22.6328C22.8852 31.1128 23.0885 31.3177 23.0885 31.572V32.0595C23.0955 32.3067 22.8852 32.5187 22.6328 32.5187Z" fill="#1C8DFF" fill-opacity="0.6"/>
<path d="M22.6328 36.3053H13.5881C13.3357 36.3053 13.1323 36.1004 13.1323 35.8461V35.3586C13.1323 35.1043 13.3357 34.8994 13.5881 34.8994H22.6328C22.8852 34.8994 23.0885 35.1043 23.0885 35.3586V35.8461C23.0955 36.1004 22.8852 36.3053 22.6328 36.3053Z" fill="#1C8DFF" fill-opacity="0.6"/>
<path d="M34.3278 36.7713H27.4847C26.3558 36.7713 25.4443 35.8529 25.4443 34.7155V28.9083C25.4443 27.7709 26.3558 26.8525 27.4847 26.8525H34.3348C35.4636 26.8525 36.3751 27.7709 36.3751 28.9083V34.7155C36.3681 35.8529 35.4566 36.7713 34.3278 36.7713Z" fill="#1C8DFF" fill-opacity="0.6"/>
<path d="M27.8493 34.8428H33.872C33.872 34.8428 34.3067 34.7297 34.1525 34.2705L32.8203 31.812C32.8203 31.812 32.5048 31.4941 32.1963 31.812L31.7476 32.6033C31.7476 32.6033 31.6775 32.7728 31.4882 32.5891L30.3453 30.5475C30.3453 30.5475 30.0649 30.2649 29.6652 30.5475L27.6319 34.1999C27.6249 34.1999 27.3094 34.8428 27.8493 34.8428Z" fill="#1D1D1D"/>
<path d="M31.8458 30.4911C32.2253 30.4911 32.5329 30.1811 32.5329 29.7988C32.5329 29.4164 32.2253 29.1064 31.8458 29.1064C31.4663 29.1064 31.1587 29.4164 31.1587 29.7988C31.1587 30.1811 31.4663 30.4911 31.8458 30.4911Z" fill="#1D1D1D"/>
<path d="M5.09033 22.9316H9.26912L9.30418 36.3686C9.30418 36.3686 8.77131 39.1662 5.51803 39.2792L5.48297 23.8854L5.09033 22.9316Z" fill="#1D1D1D"/>
<path d="M9.97725 19.2227C15.0035 19.2227 19.078 15.1267 19.078 10.074C19.078 5.02131 15.0035 0.925293 9.97725 0.925293C4.95103 0.925293 0.876465 5.02131 0.876465 10.074C0.876465 15.1267 4.95103 19.2227 9.97725 19.2227Z" fill="#1D1D1D"/>
<path d="M9.97721 0C4.46626 0 0 4.50018 0 10.053C0 15.6058 4.46626 20.106 9.97721 20.106C15.4882 20.106 19.9544 15.6058 19.9544 10.053C19.9544 4.50018 15.4952 0 9.97721 0ZM9.97721 19.2229C4.95004 19.2229 0.876424 15.1183 0.876424 10.053C0.876424 4.98764 4.95706 0.890145 9.97721 0.890145C14.9974 0.890145 19.078 4.9947 19.078 10.06C19.078 15.1254 15.0044 19.2229 9.97721 19.2229Z" fill="#1C8DFF" fill-opacity="0.6"/>
<path d="M9.97733 17.1036C13.8845 17.1036 17.0518 13.9122 17.0518 9.97539C17.0518 6.03858 13.8845 2.84717 9.97733 2.84717C6.07019 2.84717 2.90283 6.03858 2.90283 9.97539C2.90283 13.9122 6.07019 17.1036 9.97733 17.1036Z" fill="#1C8DFF" fill-opacity="0.6"/>
<path d="M11.4146 9.75615C12.9361 9.57247 12.852 8.20193 12.852 8.20193C12.8449 6.94442 11.5548 6.72542 11.5548 6.72542H10.5873V5.41846H9.76694V6.72542H9.25511V5.41846H8.39972V6.71835H6.87825V7.50253H7.69858V12.4195L6.83618 12.4125V13.239H8.39271V14.5318H9.25511V13.239H9.75993V14.5318H10.5873V13.2319H11.5689C12.9852 13.0765 13.1184 11.7272 13.1184 11.7272C13.2236 9.79147 11.4146 9.75615 11.4146 9.75615ZM11.3655 11.3245C11.3655 11.7625 11.015 12.1228 10.5733 12.1228H9.21304V10.3637H10.4681C10.9589 10.3637 11.3585 10.7664 11.3585 11.2609V11.3245H11.3655ZM11.3655 8.63287C11.3655 9.07088 11.015 9.43117 10.5733 9.43117H9.21304V7.67208H10.4681C10.9589 7.67208 11.3585 8.07476 11.3585 8.56929V8.63287H11.3655Z" fill="#1D1D1D"/>
<path d="M5.07631 10.7168C5.4403 10.7168 5.73538 10.4195 5.73538 10.0527C5.73538 9.68599 5.4403 9.38867 5.07631 9.38867C4.71231 9.38867 4.41724 9.68599 4.41724 10.0527C4.41724 10.4195 4.71231 10.7168 5.07631 10.7168Z" fill="#1D1D1D"/>
<path d="M14.9413 10.7168C15.3053 10.7168 15.6004 10.4195 15.6004 10.0527C15.6004 9.68599 15.3053 9.38867 14.9413 9.38867C14.5773 9.38867 14.2822 9.68599 14.2822 10.0527C14.2822 10.4195 14.5773 10.7168 14.9413 10.7168Z" fill="#1D1D1D"/>
</g>
<defs>
<clipPath id="clip0_1_17603">
<rect width="40" height="40" fill="white"/>
</clipPath>
</defs>
</svg>
