<svg width="24" height="25" viewBox="0 0 24 25" fill="none" xmlns="http://www.w3.org/2000/svg">
<path fill-rule="evenodd" clip-rule="evenodd" d="M12 21.1465C16.9705 21.1465 21 17.089 21 12.0838C21 7.0787 16.9705 3.02113 12 3.02113C7.0295 3.02113 3 7.0787 3 12.0838C3 17.089 7.0295 21.1465 12 21.1465ZM12 22.1535C17.523 22.1535 22 17.6453 22 12.0838C22 6.52235 17.523 2.01416 12 2.01416C6.477 2.01416 2 6.52235 2 12.0838C2 17.6453 6.477 22.1535 12 22.1535Z" fill="#1C8DFF"/>
<path d="M6 17.9393C6 17.4192 6.386 16.9796 6.9 16.9222C10.7575 16.4923 13.26 16.531 17.109 16.9318C17.3012 16.9521 17.4834 17.0284 17.6333 17.1512C17.7831 17.2741 17.8942 17.4383 17.953 17.6237C18.0117 17.8091 18.0156 18.0077 17.9641 18.1952C17.9126 18.3828 17.808 18.5512 17.663 18.6799C13.1205 22.667 10.5245 22.6121 6.32 18.6839C6.115 18.4926 6 18.2207 6 17.9398V17.9393Z" fill="#1C8DFF"/>
<path fill-rule="evenodd" clip-rule="evenodd" d="M17.0575 17.4321C13.239 17.0343 10.7725 16.9971 6.9545 17.4225C6.82882 17.4373 6.71296 17.4982 6.6291 17.5936C6.54524 17.689 6.49928 17.8122 6.5 17.9396C6.5 18.0836 6.5595 18.2201 6.66 18.3147C8.744 20.2612 10.323 21.1408 11.8665 21.1463C13.4155 21.1518 15.0795 20.2793 17.3345 18.3006C17.4061 18.2364 17.4577 18.1526 17.483 18.0594C17.5082 17.9663 17.506 17.8677 17.4767 17.7758C17.4473 17.6838 17.3921 17.6025 17.3177 17.5415C17.2433 17.4806 17.1529 17.4428 17.0575 17.4326V17.4321ZM6.845 16.4216C10.743 15.9871 13.282 16.0264 17.161 16.4307C17.4502 16.4611 17.7242 16.5757 17.9497 16.7605C18.1751 16.9453 18.3422 17.1924 18.4304 17.4713C18.5185 17.7503 18.524 18.0491 18.4462 18.3311C18.3683 18.6132 18.2105 18.8662 17.992 19.0594C15.7045 21.0673 13.7995 22.1608 11.8635 22.1533C9.922 22.1462 8.101 21.034 5.9805 19.0528C5.82868 18.9104 5.70765 18.738 5.62497 18.5464C5.5423 18.3548 5.49976 18.148 5.5 17.9391C5.49927 17.5637 5.6361 17.2013 5.88429 16.9212C6.13247 16.6411 6.47455 16.463 6.845 16.4211V16.4216Z" fill="#1C8DFF"/>
<path d="M16 10.0699C16 11.1381 15.5786 12.1626 14.8284 12.918C14.0783 13.6734 13.0609 14.0977 12 14.0977C10.9391 14.0977 9.92172 13.6734 9.17157 12.918C8.42143 12.1626 8 11.1381 8 10.0699C8 9.0016 8.42143 7.9771 9.17157 7.22173C9.92172 6.46636 10.9391 6.04199 12 6.04199C13.0609 6.04199 14.0783 6.46636 14.8284 7.22173C15.5786 7.9771 16 9.0016 16 10.0699Z" fill="#1C8DFF"/>
<path fill-rule="evenodd" clip-rule="evenodd" d="M12 13.0908C12.7956 13.0908 13.5587 12.7725 14.1213 12.206C14.6839 11.6394 15 10.8711 15 10.0699C15 9.26867 14.6839 8.50029 14.1213 7.93376C13.5587 7.36723 12.7956 7.04896 12 7.04896C11.2044 7.04896 10.4413 7.36723 9.87868 7.93376C9.31607 8.50029 9 9.26867 9 10.0699C9 10.8711 9.31607 11.6394 9.87868 12.206C10.4413 12.7725 11.2044 13.0908 12 13.0908ZM12 14.0977C13.0609 14.0977 14.0783 13.6734 14.8284 12.918C15.5786 12.1626 16 11.1381 16 10.0699C16 9.0016 15.5786 7.9771 14.8284 7.22173C14.0783 6.46636 13.0609 6.04199 12 6.04199C10.9391 6.04199 9.92172 6.46636 9.17157 7.22173C8.42143 7.9771 8 9.0016 8 10.0699C8 11.1381 8.42143 12.1626 9.17157 12.918C9.92172 13.6734 10.9391 14.0977 12 14.0977Z" fill="#1C8DFF"/>
</svg>
